<?xml version="1.0" encoding="UTF-8"?>
<svg width="66px" height="71px" viewBox="0 0 66 71" version="1.1" xmlns="http://www.w3.org/2000/svg" xmlns:xlink="http://www.w3.org/1999/xlink">
    <!-- Generator: Sketch 43 (38999) - http://www.bohemiancoding.com/sketch -->
    <title>1</title>
    <desc>Created with Sketch.</desc>
    <defs></defs>
    <g id="Page-1" stroke="none" stroke-width="1" fill="none" fill-rule="evenodd">
        <g id="Final-A" transform="translate(-702.000000, -882.000000)">
            <g id="1" transform="translate(702.000000, 882.000000)">
                <path d="M43.0573454,67.2952367 C52.1018041,62.4441789 66,54.1914703 66,34.2081377 C66,14.224805 48.3928771,0 31.1752577,0 C13.9576383,0 0,14.224805 0,34.2081377 C0,43.7217822 3.79589454,54.2085557 10.6005155,61.474161 C17.4051364,68.7397662 21.4874765,69.5395677 23.7970361,70.1239716 C28.1278995,71.2198402 34.0128866,72.1462945 43.0573454,67.2952367 Z" id="Oval-3" fill="#A3B3BD"></path>
                <path d="M33.4101562,26.7890625 C33.6250011,27.2187521 33.9033186,27.5654284 34.2451172,27.8291016 C34.5869158,28.0927748 34.9238265,28.3613268 35.2558594,28.6347656 C35.6660177,29.3964882 35.9199214,30.2460891 36.0175781,31.1835938 C36.1152349,32.1210984 36.2226557,33.1464788 36.3398438,34.2597656 C36.3398438,35.1582076 36.2812506,36.0029257 36.1640625,36.7939453 C36.0468744,37.5849649 35.8955087,38.3564416 35.7099609,39.1083984 C35.5244131,39.8603553 35.3144543,40.6074182 35.0800781,41.3496094 C34.845702,42.0918006 34.6210948,42.8730428 34.40625,43.6933594 C34.1328111,43.9863296 33.9228523,44.4013645 33.7763672,44.9384766 C33.6298821,45.4755886 33.6152338,45.9980443 33.7324219,46.5058594 C33.4785144,46.8183609 33.2246106,47.1210923 32.9707031,47.4140625 C32.7167956,47.7070327 32.4335953,47.9804675 32.1210938,48.234375 C32.0039057,48.1171869 31.85254,48.053711 31.6669922,48.0439453 C31.4814444,48.0341796 31.2910166,48.0341796 31.0957031,48.0439453 C30.9003896,48.053711 30.7197274,48.073242 30.5537109,48.1025391 C30.3876945,48.1318361 30.2656254,48.1367188 30.1875,48.1171875 C30.0898433,47.9609367 29.9580086,47.7949228 29.7919922,47.6191406 C29.6259757,47.4433585 29.4794928,47.2578135 29.3525391,47.0625 C29.2255853,46.8671865 29.12793,46.6767587 29.0595703,46.4912109 C28.9912106,46.3056631 29.0058589,46.1250009 29.1035156,45.9492188 C29.1035156,45.7343739 28.9863293,45.6269531 28.7519531,45.6269531 C28.8105472,44.7285111 28.9570301,43.8447309 29.1914062,42.9755859 C29.4257824,42.106441 29.6894517,41.2568401 29.9824219,40.4267578 C30.2753921,39.5966755 30.5634751,38.7714885 30.8466797,37.9511719 C31.1298842,37.1308553 31.3447258,36.3203165 31.4912109,35.5195312 C31.637696,34.718746 31.6767582,33.9179728 31.6083984,33.1171875 C31.5400387,32.3164022 31.3105488,31.5058635 30.9199219,30.6855469 C30.9199219,30.412108 30.9150391,30.1826181 30.9052734,29.9970703 C30.8955078,29.8115225 30.8857422,29.6455085 30.8759766,29.4990234 C30.8662109,29.3525383 30.8515626,29.2109382 30.8320312,29.0742188 C30.8124999,28.9374993 30.7734378,28.7910164 30.7148438,28.6347656 C30.8125005,28.3613268 30.8857419,28.107423 30.9345703,27.8730469 C30.9833987,27.6386707 30.9785159,27.4238291 30.9199219,27.2285156 C30.9394532,27.0917962 30.9785153,26.9794926 31.0371094,26.8916016 C31.0957034,26.8037105 31.1640621,26.7158208 31.2421875,26.6279297 C31.3203129,26.5400386 31.3935543,26.4521489 31.4619141,26.3642578 C31.5302738,26.2763667 31.5742187,26.1640632 31.59375,26.0273438 L32.2382812,26.0273438 C32.4531261,26.2031259 32.6386711,26.3642571 32.7949219,26.5107422 C32.9511727,26.6572273 33.1562487,26.7499998 33.4101562,26.7890625 Z" fill="#FFFFFF"></path>
            </g>
        </g>
    </g>
</svg>