<?xml version="1.0" encoding="UTF-8"?>
<svg width="71px" height="66px" viewBox="0 0 71 66" version="1.1" xmlns="http://www.w3.org/2000/svg" xmlns:xlink="http://www.w3.org/1999/xlink">
    <!-- Generator: Sketch 43 (38999) - http://www.bohemiancoding.com/sketch -->
    <title>2</title>
    <desc>Created with Sketch.</desc>
    <defs></defs>
    <g id="Page-1" stroke="none" stroke-width="1" fill="none" fill-rule="evenodd">
        <g id="Final-A" transform="translate(-700.000000, -1053.000000)">
            <g id="2" transform="translate(700.000000, 1053.000000)">
                <path d="M5.41792841,46.9928759 C11.3350694,55.3631747 21.2200275,68.1283108 41.0544074,65.6974707 C60.8887873,63.2666306 72.8617944,44.0927983 70.7634944,27.0352027 C68.6651944,9.97760701 52.8454107,-2.11995307 33.0110308,0.310887022 C23.5682996,1.46815888 13.622296,6.50442022 7.24012217,14.1296105 C0.857948295,21.7548008 0.561620568,25.8964894 0.263037168,28.2556724 C-0.296863487,32.6795891 -0.499212583,38.6225771 5.41792841,46.9928759 Z" id="Oval-3" fill="#A3B3BD"></path>
                <path d="M45.8398437,40.9023438 C46.3085961,41.1367199 46.5478515,41.4296857 46.5576172,41.78125 C46.5673829,42.1328143 46.4599621,42.4599594 46.2353516,42.7626953 C46.0107411,43.0654312 45.7177752,43.2949211 45.3564453,43.4511719 C44.9951154,43.6074227 44.6679702,43.5976571 44.375,43.421875 C44.3359373,43.5781258 44.2529303,43.6806638 44.1259766,43.7294922 C43.9990228,43.7783206 43.9160158,43.8710931 43.8769531,44.0078125 C41.9824124,44.3007827 40.048838,44.6621072 38.0761719,45.0917969 C36.1035058,45.5214865 34.1308692,45.8437489 32.1582031,46.0585938 C30.634758,45.9999997 29.3652395,45.7753926 28.3496094,45.3847656 C27.9394511,45.0332014 27.631837,44.5937526 27.4267578,44.0664062 C27.2216787,43.5390599 27.0996096,42.9824248 27.0605469,42.3964844 C27.0214842,41.8105439 27.0410152,41.2392606 27.1191406,40.6826172 C27.197266,40.1259738 27.3144523,39.6425802 27.4707031,39.2324219 C28.4863332,37.9433529 29.5458929,36.7080137 30.6494141,35.5263672 C31.7529352,34.3447207 33.0078055,33.2949265 34.4140625,32.3769531 C34.8242208,31.8691381 35.3027316,31.4345721 35.8496094,31.0732422 C36.3964871,30.7119123 36.894529,30.3066429 37.34375,29.8574219 C36.7578096,29.6425771 36.1425813,29.5351562 35.4980469,29.5351562 C34.8535124,29.5351562 34.2187531,29.5888667 33.59375,29.6962891 C32.9687469,29.8037115 32.3828152,29.9355461 31.8359375,30.0917969 C31.2890598,30.2480477 30.8105489,30.365234 30.4003906,30.4433594 C30.0878891,30.2871086 29.7216818,30.1992188 29.3017578,30.1796875 C28.8818338,30.1601562 28.4667989,30.0820319 28.0566406,29.9453125 C27.8222645,29.749999 27.6611333,29.4960953 27.5732422,29.1835938 C27.4853511,28.8710922 27.4316407,28.5488298 27.4121094,28.2167969 C27.392578,27.884764 27.3828125,27.5673843 27.3828125,27.2646484 C27.3828125,26.9619125 27.3437504,26.7128916 27.265625,26.5175781 C27.4218758,26.2636706 27.5634759,26.0097669 27.6904297,25.7558594 C27.8173834,25.5019519 27.9687491,25.2675792 28.1445312,25.0527344 C29.0625046,24.7988269 30.0781194,24.588868 31.1914062,24.4228516 C32.3046931,24.2568351 33.4277287,24.1835937 34.5605469,24.203125 C35.693365,24.2226563 36.7871041,24.3642565 37.8417969,24.6279297 C38.8964896,24.8916029 39.8339803,25.3261688 40.6542969,25.9316406 C40.7519536,26.4785184 40.9570297,26.9130843 41.2695312,27.2353516 C41.5820328,27.5576188 41.9628884,27.8066397 42.4121094,27.9824219 C42.6269542,28.3730488 42.8124992,28.7685527 42.96875,29.1689453 C43.1250008,29.5693379 43.2324216,29.9941384 43.2910156,30.4433594 C42.9003887,31.4785208 42.3486364,32.3525355 41.6357422,33.0654297 C40.922848,33.7783239 40.2050817,34.4277314 39.4824219,35.0136719 C39.0917949,35.3457048 38.6718772,35.6289051 38.2226562,35.8632812 C37.7734353,36.0976574 37.3828142,36.3710922 37.0507812,36.6835938 C36.9726559,36.7617191 36.9238282,36.8642572 36.9042969,36.9912109 C36.8847655,37.1181647 36.8359379,37.2109372 36.7578125,37.2695312 C36.4062482,37.5820328 36.0156271,37.8603503 35.5859375,38.1044922 C35.1562479,38.348634 34.7656268,38.6269516 34.4140625,38.9394531 C34.160155,39.1542979 33.9501961,39.3886706 33.7841797,39.6425781 C33.6181632,39.8964856 33.3984389,40.1210928 33.125,40.3164062 C33.4765643,40.4335943 33.8232405,40.482422 34.1650391,40.4628906 C34.5068376,40.4433593 34.8583966,40.4042972 35.2197266,40.3457031 C35.5810565,40.2871091 35.9521465,40.2285159 36.3330078,40.1699219 C36.7138691,40.1113278 37.1093729,40.0917968 37.5195312,40.1113281 C38.0859403,39.9160146 38.7109341,39.7451179 39.3945312,39.5986328 C40.0781284,39.4521477 40.7617153,39.3984373 41.4453125,39.4375 C42.0312529,39.2031238 42.5927708,39.0322271 43.1298828,38.9248047 C43.6669949,38.8173823 44.1796851,38.7929685 44.6679687,38.8515625 C44.9218763,38.9492192 45.1123041,39.1249987 45.2392578,39.3789062 C45.3662116,39.6328138 45.5664049,39.8085933 45.8398437,39.90625 C45.7812497,40.1210948 45.7666014,40.2773433 45.7958984,40.375 C45.8251955,40.4726567 45.8398437,40.6484362 45.8398437,40.9023438 Z" fill="#FFFFFF"></path>
            </g>
        </g>
    </g>
</svg>