<?xml version="1.0" encoding="UTF-8"?>
<svg width="66px" height="71px" viewBox="0 0 66 71" version="1.1" xmlns="http://www.w3.org/2000/svg" xmlns:xlink="http://www.w3.org/1999/xlink">
    <!-- Generator: Sketch 43 (38999) - http://www.bohemiancoding.com/sketch -->
    <title>3</title>
    <desc>Created with Sketch.</desc>
    <defs></defs>
    <g id="Page-1" stroke="none" stroke-width="1" fill="none" fill-rule="evenodd">
        <g id="Final-A" transform="translate(-702.000000, -1219.000000)">
            <g id="3" transform="translate(702.000000, 1219.000000)">
                <path d="M27.0394414,2.26057264 C17.4763399,5.98773344 2.68393217,12.5105472 0.249883915,32.4224145 C-2.18416434,52.3342818 13.5496991,68.6623668 30.629807,70.7688643 C47.7099148,72.8753617 63.288715,60.4090817 65.7227633,40.4972144 C66.8815625,31.0175931 64.3933147,20.1039124 58.5280192,12.0317763 C52.6627238,3.95964021 48.710407,2.66324331 46.4904758,1.7983652 C42.3276827,0.176554283 36.6025428,-1.46658816 27.0394414,2.26057264 Z" id="Oval-3" fill="#A3B3BD"></path>
                <path d="M25.6318359,28.078125 C26.7060601,27.8632802 27.7705025,27.6435558 28.8251953,27.4189453 C29.8798881,27.1943348 30.9394478,27.003907 32.0039063,26.8476562 C33.0683647,26.6914055 34.157221,26.5839847 35.2705078,26.5253906 C36.3837946,26.4667966 37.5556579,26.4960932 38.7861328,26.6132812 C39.2744165,27.1210963 39.7040997,27.6728486 40.0751953,28.2685547 C40.4462909,28.8642608 40.7978499,29.4843718 41.1298828,30.1289062 C41.0908201,30.2656257 41.0664063,30.4023431 41.0566406,30.5390625 C41.046875,30.6757819 41.0224611,30.8222648 40.9833984,30.9785156 C40.8857417,31.2324231 40.7539071,31.461913 40.5878906,31.6669922 C40.4218742,31.8720713 40.2900396,32.1113268 40.1923828,32.3847656 C39.7040991,32.6582045 39.2402366,32.9511703 38.8007813,33.2636719 C38.3613259,33.5761734 37.92676,33.8984358 37.4970703,34.2304688 C37.1455061,34.3867195 36.7792988,34.5283197 36.3984375,34.6552734 C36.0175762,34.7822272 35.7294932,35.0214826 35.5341797,35.3730469 C36.1787142,35.6464857 36.7451147,35.9785137 37.2333984,36.3691406 C37.7216821,36.7597676 38.1513653,37.1992163 38.5224609,37.6875 C38.8935565,38.1757837 39.2158189,38.7031222 39.4892578,39.2695312 C39.7626967,39.8359403 40.0068349,40.421872 40.2216797,41.0273438 C40.182617,41.320314 40.1337894,41.6230453 40.0751953,41.9355469 C40.0166013,42.2480484 40.0166013,42.5117177 40.0751953,42.7265625 C39.9384759,43.1367208 39.7578136,43.463866 39.5332031,43.7080078 C39.3085926,43.9521497 39.0888683,44.2792948 38.8740234,44.6894531 C38.1904263,44.9824233 37.6337912,45.3925755 37.2041016,45.9199219 C37.0087881,45.9199219 36.9111328,45.8808598 36.9111328,45.8027344 C36.305661,46.2128927 35.6025431,46.5595689 34.8017578,46.8427734 C34.0009726,47.125978 33.1416062,47.3457023 32.2236328,47.5019531 C31.3056595,47.6582039 30.3388723,47.7460937 29.3232422,47.765625 C28.3076121,47.7851563 27.2919973,47.7460942 26.2763672,47.6484375 C26.1982418,47.5898435 26.1298831,47.5214848 26.0712891,47.4433594 C26.012695,47.365234 25.8955087,47.3359374 25.7197266,47.3554688 C25.6416012,47.1601553 25.5390631,46.9892585 25.4121094,46.8427734 C25.2851556,46.6962883 25.1826176,46.5253916 25.1044922,46.3300781 C25.2998057,46.0175766 25.4316403,45.6562521 25.5,45.2460938 C25.5683597,44.8359354 25.6464839,44.4404316 25.734375,44.0595703 C25.8222661,43.678709 25.9443352,43.3369156 26.1005859,43.0341797 C26.2568367,42.7314438 26.520506,42.5117194 26.8916016,42.375 C27.0478523,42.3554687 27.1357421,42.4042963 27.1552734,42.5214844 C27.1748048,42.6386725 27.2333979,42.7167967 27.3310547,42.7558594 C28.0927772,42.7558594 28.8544884,42.7412111 29.6162109,42.7119141 C30.3779335,42.682617 31.1005825,42.6142583 31.7841797,42.5068359 C32.4677769,42.3994135 33.1074189,42.2382823 33.703125,42.0234375 C34.2988311,41.8085927 34.8115213,41.5058613 35.2412109,41.1152344 C34.6552705,40.646482 33.9716836,40.2900403 33.1904297,40.0458984 C32.4091758,39.8017566 31.6523474,39.5625012 30.9199219,39.328125 C30.1874963,39.0937488 29.5380888,38.7959002 28.9716797,38.4345703 C28.4052706,38.0732404 28.0341806,37.5410191 27.8583984,36.8378906 C27.9560552,36.3886696 28.0244139,35.988283 28.0634766,35.6367188 C28.1025393,35.2851545 28.1513669,34.9628921 28.2099609,34.6699219 C28.268555,34.3769517 28.3613275,34.0986341 28.4882813,33.8349609 C28.615235,33.5712877 28.8251938,33.3125013 29.1181641,33.0585938 C29.0205073,32.9999997 28.8789072,32.9853514 28.6933594,33.0146484 C28.5078116,33.0439455 28.3076183,33.0927731 28.0927734,33.1611328 C27.8779286,33.2294925 27.6679698,33.3076167 27.4628906,33.3955078 L26.9501953,33.6152344 C26.540037,33.5175776 26.1250021,33.4541017 25.7050781,33.4248047 C25.2851542,33.3955077 24.8994158,33.2734386 24.5478516,33.0585938 C24.5087889,32.8437489 24.4599612,32.6044935 24.4013672,32.3408203 C24.3427731,32.0771471 24.303711,31.8085951 24.2841797,31.5351562 C24.2646483,31.2617174 24.2841794,30.9882826 24.3427734,30.7148438 C24.4013675,30.4414049 24.5380849,30.1875012 24.7529297,29.953125 C24.713867,29.8164056 24.6845704,29.6796882 24.6650391,29.5429688 C24.6455077,29.4062493 24.6064456,29.289063 24.5478516,29.1914062 C24.7626964,29.0156241 24.9921863,28.8398446 25.2363281,28.6640625 C25.48047,28.4882804 25.6123046,28.2929698 25.6318359,28.078125 Z" fill="#FFFFFF"></path>
            </g>
        </g>
    </g>
</svg>