<?xml version="1.0" encoding="UTF-8"?>
<svg width="394px" height="78px" viewBox="0 0 394 78" version="1.1" xmlns="http://www.w3.org/2000/svg" xmlns:xlink="http://www.w3.org/1999/xlink">
    <!-- Generator: Sketch 43 (38999) - http://www.bohemiancoding.com/sketch -->
    <title>hint</title>
    <desc>Created with Sketch.</desc>
    <defs>
        <linearGradient x1="131.020667%" y1="84.0380282%" x2="100.354%" y2="190.376056%" id="linearGradient-1">
            <stop stop-color="#FFFFFF" offset="0%"></stop>
            <stop stop-color="#FFFFFF" stop-opacity="0" offset="100%"></stop>
        </linearGradient>
        <linearGradient x1="130.972024%" y1="82.7947227%" x2="100.472143%" y2="185.832594%" id="linearGradient-2">
            <stop stop-color="#FFFFFF" offset="0%"></stop>
            <stop stop-color="#FFFFFF" stop-opacity="0" offset="100%"></stop>
        </linearGradient>
    </defs>
    <g id="Page-1" stroke="none" stroke-width="1" fill="none" fill-rule="evenodd">
        <g id="Final-A" transform="translate(-694.000000, -486.000000)">
            <g id="hint" transform="translate(694.000000, 458.000000)">
                <path d="M1.2225,73.82 C1.04749913,73.6399991 0.96,73.4050014 0.96,73.115 L0.96,64.31 C0.96,64.0199985 1.04749913,63.7875009 1.2225,63.6125 C1.39750087,63.4374991 1.62999855,63.35 1.92,63.35 C2.2200015,63.35 2.45749913,63.4374991 2.6325,63.6125 C2.80750087,63.7875009 2.895,64.0199985 2.895,64.31 L2.895,73.115 C2.895,73.4050014 2.80750087,73.6399991 2.6325,73.82 C2.45749913,74.0000009 2.2200015,74.09 1.92,74.09 C1.62999855,74.09 1.39750087,74.0000009 1.2225,73.82 Z M11.235,67.235 C11.6650021,67.7350025 11.88,68.4899949 11.88,69.5 L11.88,73.19 C11.88,73.4700014 11.7975008,73.6899992 11.6325,73.85 C11.4674992,74.0100008 11.2400015,74.09 10.95,74.09 C10.6599985,74.09 10.4300009,74.0100008 10.26,73.85 C10.0899992,73.6899992 10.005,73.4700014 10.005,73.19 L10.005,69.605 C10.005,69.0349971 9.89750108,68.6200013 9.6825,68.36 C9.46749892,68.0999987 9.1300023,67.97 8.67,67.97 C8.1299973,67.97 7.69750162,68.1399983 7.3725,68.48 C7.04749838,68.8200017 6.885,69.2749971 6.885,69.845 L6.885,73.19 C6.885,73.4700014 6.80000085,73.6899992 6.63,73.85 C6.45999915,74.0100008 6.23000145,74.09 5.94,74.09 C5.64999855,74.09 5.42250083,74.0100008 5.2575,73.85 C5.09249918,73.6899992 5.01,73.4700014 5.01,73.19 L5.01,67.385 C5.01,67.1249987 5.09499915,66.9150008 5.265,66.755 C5.43500085,66.5949992 5.66499855,66.515 5.955,66.515 C6.2150013,66.515 6.42749917,66.5924992 6.5925,66.7475 C6.75750082,66.9025008 6.84,67.1049987 6.84,67.355 L6.84,67.76 C7.09000125,67.3499979 7.4249979,67.0350011 7.845,66.815 C8.2650021,66.5949989 8.73999735,66.485 9.27,66.485 C10.1500044,66.485 10.8049979,66.7349975 11.235,67.235 Z M15.1125,73.655 C14.5574972,73.3449984 14.1300015,72.9050028 13.83,72.335 C13.5299985,71.7649971 13.38,71.1000038 13.38,70.34 C13.38,69.5799962 13.5374984,68.9075029 13.8525,68.3225 C14.1675016,67.7374971 14.6099972,67.2850016 15.18,66.965 C15.7500028,66.6449984 16.4049963,66.485 17.145,66.485 C17.535002,66.485 17.927498,66.5399994 18.3225,66.65 C18.717502,66.7600005 19.0649985,66.909999 19.365,67.1 C19.6850016,67.310001 19.845,67.5749984 19.845,67.895 C19.845,68.1150011 19.7925005,68.2924993 19.6875,68.4275 C19.5824995,68.5625007 19.4450009,68.63 19.275,68.63 C19.1649994,68.63 19.0500006,68.6050002 18.93,68.555 C18.8099994,68.5049997 18.6900006,68.4450003 18.57,68.375 C18.3499989,68.2449993 18.140001,68.1425004 17.94,68.0675 C17.739999,67.9924996 17.5100013,67.955 17.25,67.955 C16.6299969,67.955 16.1525017,68.157498 15.8175,68.5625 C15.4824983,68.967502 15.315,69.5499962 15.315,70.31 C15.315,71.0600037 15.4824983,71.637498 15.8175,72.0425 C16.1525017,72.447502 16.6299969,72.65 17.25,72.65 C17.5000012,72.65 17.722499,72.6125004 17.9175,72.5375 C18.112501,72.4624996 18.3299988,72.3600006 18.57,72.23 C18.7200008,72.1399995 18.8499995,72.0725002 18.96,72.0275 C19.0700006,71.9824998 19.1799994,71.96 19.29,71.96 C19.4500008,71.96 19.5849995,72.0299993 19.695,72.17 C19.8050006,72.3100007 19.86,72.4849989 19.86,72.695 C19.86,72.8650008 19.8225004,73.0124994 19.7475,73.1375 C19.6724996,73.2625006 19.5500009,73.3749995 19.38,73.475 C19.0699984,73.675001 18.710002,73.8324994 18.3,73.9475 C17.8899979,74.0625006 17.4700022,74.12 17.04,74.12 C16.3099964,74.12 15.6675028,73.9650015 15.1125,73.655 Z M21.3675,73.8575 C21.1924991,73.7024992 21.105,73.4800014 21.105,73.19 L21.105,64.235 C21.105,63.9449985 21.1924991,63.7250007 21.3675,63.575 C21.5425009,63.4249992 21.7649987,63.35 22.035,63.35 C22.3050013,63.35 22.5299991,63.4249992 22.71,63.575 C22.8900009,63.7250007 22.98,63.9449985 22.98,64.235 L22.98,73.19 C22.98,73.4800014 22.8900009,73.7024992 22.71,73.8575 C22.5299991,74.0125008 22.3050013,74.09 22.035,74.09 C21.7649987,74.09 21.5425009,74.0125008 21.3675,73.8575 Z M31.395,66.755 C31.5650009,66.9150008 31.65,67.1299986 31.65,67.4 L31.65,73.22 C31.65,73.4800013 31.5625009,73.6899992 31.3875,73.85 C31.2124991,74.0100008 30.9850014,74.09 30.705,74.09 C30.4349987,74.09 30.2200008,74.0150007 30.06,73.865 C29.8999992,73.7149992 29.82,73.5100013 29.82,73.25 L29.82,72.875 C29.5899989,73.275002 29.280002,73.5824989 28.89,73.7975 C28.4999981,74.0125011 28.0600024,74.12 27.57,74.12 C25.769991,74.12 24.87,73.1100101 24.87,71.09 L24.87,67.4 C24.87,67.1299986 24.9549992,66.9150008 25.125,66.755 C25.2950008,66.5949992 25.5199986,66.515 25.8,66.515 C26.0900015,66.515 26.3199992,66.5949992 26.49,66.755 C26.6600008,66.9150008 26.745,67.1299986 26.745,67.4 L26.745,71.105 C26.745,71.6250026 26.8499989,72.0099987 27.06,72.26 C27.2700011,72.5100012 27.5999978,72.635 28.05,72.635 C28.5700026,72.635 28.9874984,72.4625017 29.3025,72.1175 C29.6175016,71.7724983 29.775,71.3150028 29.775,70.745 L29.775,67.4 C29.775,67.1299986 29.8599992,66.9150008 30.03,66.755 C30.2000009,66.5949992 30.4249986,66.515 30.705,66.515 C30.9950015,66.515 31.2249992,66.5949992 31.395,66.755 Z M40.41,63.59 C40.5900009,63.7500008 40.68,63.9599987 40.68,64.22 L40.68,73.19 C40.68,73.4600013 40.5950009,73.6749992 40.425,73.835 C40.2549992,73.9950008 40.0300014,74.075 39.75,74.075 C39.4699986,74.075 39.2450008,73.9950008 39.075,73.835 C38.9049991,73.6749992 38.82,73.4600013 38.82,73.19 L38.82,72.815 C38.5999989,73.225002 38.2825021,73.5449988 37.8675,73.775 C37.4524979,74.0050011 36.9800026,74.12 36.45,74.12 C35.8199969,74.12 35.2575025,73.9600016 34.7625,73.64 C34.2674975,73.3199984 33.8825014,72.8675029 33.6075,72.2825 C33.3324986,71.6974971 33.195,71.0250038 33.195,70.265 C33.195,69.5049962 33.3324986,68.8400028 33.6075,68.27 C33.8825014,67.6999971 34.2649975,67.2600015 34.755,66.95 C35.2450025,66.6399984 35.8099968,66.485 36.45,66.485 C36.9800026,66.485 37.449998,66.5949989 37.86,66.815 C38.2700021,67.0350011 38.5849989,67.344998 38.805,67.745 L38.805,64.19 C38.805,63.9399987 38.8874992,63.7375008 39.0525,63.5825 C39.2175008,63.4274992 39.4399986,63.35 39.72,63.35 C40.0000014,63.35 40.2299991,63.4299992 40.41,63.59 Z M38.3325,72.05 C38.6575016,71.6399979 38.82,71.0550038 38.82,70.295 C38.82,69.5349962 38.6575016,68.952502 38.3325,68.5475 C38.0074984,68.142498 37.550003,67.94 36.96,67.94 C36.359997,67.94 35.8950017,68.139998 35.565,68.54 C35.2349983,68.940002 35.07,69.5149962 35.07,70.265 C35.07,71.0250038 35.2349983,71.6149979 35.565,72.035 C35.8950017,72.4550021 36.3549971,72.665 36.945,72.665 C37.545003,72.665 38.0074984,72.460002 38.3325,72.05 Z M48.8325,72.185 C48.9375005,72.3150006 48.99,72.4899989 48.99,72.71 C48.99,73.0200015 48.8050019,73.2799989 48.435,73.49 C48.0949983,73.6800009 47.7100022,73.8324994 47.28,73.9475 C46.8499979,74.0625006 46.440002,74.12 46.05,74.12 C44.8699941,74.12 43.9350035,73.7800034 43.245,73.1 C42.5549966,72.4199966 42.21,71.4900059 42.21,70.31 C42.21,69.5599962 42.3599985,68.8950029 42.66,68.315 C42.9600015,67.7349971 43.3824973,67.2850016 43.9275,66.965 C44.4725027,66.6449984 45.0899966,66.485 45.78,66.485 C46.4400033,66.485 47.0149975,66.6299985 47.505,66.92 C47.9950025,67.2100014 48.3749986,67.6199973 48.645,68.15 C48.9150014,68.6800026 49.05,69.3049964 49.05,70.025 C49.05,70.4550021 48.8600019,70.67 48.48,70.67 L44.055,70.67 C44.1150003,71.3600034 44.3099984,71.8674984 44.64,72.1925 C44.9700016,72.5175016 45.4499969,72.68 46.08,72.68 C46.4000016,72.68 46.6824988,72.6400004 46.9275,72.56 C47.1725012,72.4799996 47.4499985,72.3700007 47.76,72.23 C48.0600015,72.0699992 48.2799993,71.99 48.42,71.99 C48.5900009,71.99 48.7274995,72.0549993 48.8325,72.185 Z M44.6025,68.285 C44.2974985,68.6050016 44.1150003,69.064997 44.055,69.665 L47.445,69.665 C47.4249999,69.0549969 47.2750014,68.5925016 46.995,68.2775 C46.7149986,67.9624984 46.3250025,67.805 45.825,67.805 C45.3149974,67.805 44.9075015,67.9649984 44.6025,68.285 Z M50.595,73.475 C50.2749984,73.284999 50.115,73.0150017 50.115,72.665 C50.115,72.464999 50.1699994,72.3025006 50.28,72.1775 C50.3900005,72.0524994 50.5249992,71.99 50.685,71.99 C50.8550009,71.99 51.0899985,72.0699992 51.39,72.23 C51.7100016,72.3800007 52.0024987,72.4949996 52.2675,72.575 C52.5325013,72.6550004 52.8699979,72.695 53.28,72.695 C53.7000021,72.695 54.0274988,72.6250007 54.2625,72.485 C54.4975012,72.3449993 54.615,72.1500012 54.615,71.9 C54.615,71.7299991 54.5675005,71.5950005 54.4725,71.495 C54.3774995,71.3949995 54.2075012,71.3025004 53.9625,71.2175 C53.7174988,71.1324996 53.3450025,71.0350005 52.845,70.925 C51.9549956,70.7449991 51.3175019,70.4900016 50.9325,70.16 C50.5474981,69.8299983 50.355,69.3750029 50.355,68.795 C50.355,68.3549978 50.4849987,67.9575018 50.745,67.6025 C51.0050013,67.2474982 51.3624977,66.972501 51.8175,66.7775 C52.2725023,66.582499 52.7899971,66.485 53.37,66.485 C53.7900021,66.485 54.194998,66.5374995 54.585,66.6425 C54.9750019,66.7475005 55.3249984,66.899999 55.635,67.1 C55.9550016,67.300001 56.115,67.5649983 56.115,67.895 C56.115,68.095001 56.0600006,68.2624993 55.95,68.3975 C55.8399995,68.5325007 55.7050008,68.6 55.545,68.6 C55.4349994,68.6 55.3275005,68.5775002 55.2225,68.5325 C55.1174995,68.4874998 54.9850008,68.4200004 54.825,68.33 C54.5349985,68.1799992 54.2850011,68.0675004 54.075,67.9925 C53.8649989,67.9174996 53.6050015,67.88 53.295,67.88 C52.9249981,67.88 52.6325011,67.9549992 52.4175,68.105 C52.2024989,68.2550007 52.095,68.4599987 52.095,68.72 C52.095,68.9700012 52.2049989,69.1599993 52.425,69.29 C52.6450011,69.4200006 53.0699969,69.5499993 53.7,69.68 C54.3700034,69.8200007 54.8949981,69.9799991 55.275,70.16 C55.6550019,70.3400009 55.9274992,70.5649986 56.0925,70.835 C56.2575008,71.1050013 56.34,71.4499979 56.34,71.87 C56.34,72.5500034 56.0575028,73.0949979 55.4925,73.505 C54.9274972,73.915002 54.1750047,74.12 53.235,74.12 C52.1449945,74.12 51.2650034,73.9050021 50.595,73.475 Z M63.2925,73.655 C62.7274972,73.3449984 62.2900015,72.9000029 61.98,72.32 C61.6699984,71.7399971 61.515,71.0650038 61.515,70.295 C61.515,69.5249961 61.6699984,68.8525029 61.98,68.2775 C62.2900015,67.7024971 62.7274972,67.2600015 63.2925,66.95 C63.8575028,66.6399984 64.5149962,66.485 65.265,66.485 C66.0150038,66.485 66.6724972,66.6399984 67.2375,66.95 C67.8025028,67.2600015 68.2374985,67.7024971 68.5425,68.2775 C68.8475015,68.8525029 69,69.5249961 69,70.295 C69,71.0650038 68.8475015,71.7399971 68.5425,72.32 C68.2374985,72.9000029 67.8025028,73.3449984 67.2375,73.655 C66.6724972,73.9650015 66.0150038,74.12 65.265,74.12 C64.5149962,74.12 63.8575028,73.9650015 63.2925,73.655 Z M66.645,72.065 C66.9650016,71.664998 67.125,71.0750039 67.125,70.295 C67.125,69.5249961 66.9650016,68.937502 66.645,68.5325 C66.3249984,68.127498 65.865003,67.925 65.265,67.925 C64.664997,67.925 64.2025016,68.127498 63.8775,68.5325 C63.5524984,68.937502 63.39,69.5249961 63.39,70.295 C63.39,71.0750039 63.5499984,71.664998 63.87,72.065 C64.1900016,72.465002 64.649997,72.665 65.25,72.665 C65.8600031,72.665 66.3249984,72.465002 66.645,72.065 Z M77.025,66.755 C77.1950009,66.9150008 77.28,67.1299986 77.28,67.4 L77.28,73.22 C77.28,73.4800013 77.1925009,73.6899992 77.0175,73.85 C76.8424991,74.0100008 76.6150014,74.09 76.335,74.09 C76.0649987,74.09 75.8500008,74.0150007 75.69,73.865 C75.5299992,73.7149992 75.45,73.5100013 75.45,73.25 L75.45,72.875 C75.2199989,73.275002 74.910002,73.5824989 74.52,73.7975 C74.1299981,74.0125011 73.6900025,74.12 73.2,74.12 C71.399991,74.12 70.5,73.1100101 70.5,71.09 L70.5,67.4 C70.5,67.1299986 70.5849992,66.9150008 70.755,66.755 C70.9250009,66.5949992 71.1499986,66.515 71.43,66.515 C71.7200015,66.515 71.9499992,66.5949992 72.12,66.755 C72.2900008,66.9150008 72.375,67.1299986 72.375,67.4 L72.375,71.105 C72.375,71.6250026 72.4799989,72.0099987 72.69,72.26 C72.9000011,72.5100012 73.2299978,72.635 73.68,72.635 C74.2000026,72.635 74.6174984,72.4625017 74.9325,72.1175 C75.2475016,71.7724983 75.405,71.3150028 75.405,70.745 L75.405,67.4 C75.405,67.1299986 75.4899992,66.9150008 75.66,66.755 C75.8300009,66.5949992 76.0549986,66.515 76.335,66.515 C76.6250015,66.515 76.8549992,66.5949992 77.025,66.755 Z M83.94,66.68 C84.0900007,66.8100006 84.165,67.0049987 84.165,67.265 C84.165,67.5350013 84.1000006,67.7349993 83.97,67.865 C83.8399993,67.9950006 83.6050017,68.0799998 83.265,68.12 L82.815,68.165 C82.224997,68.2250003 81.7925014,68.4249983 81.5175,68.765 C81.2424986,69.1050017 81.105,69.5299974 81.105,70.04 L81.105,73.19 C81.105,73.4800014 81.0150009,73.7024992 80.835,73.8575 C80.6549991,74.0125008 80.4300013,74.09 80.16,74.09 C79.8899987,74.09 79.6675009,74.0125008 79.4925,73.8575 C79.3174991,73.7024992 79.23,73.4800014 79.23,73.19 L79.23,67.385 C79.23,67.1049986 79.3174991,66.8900007 79.4925,66.74 C79.6675009,66.5899992 79.8849987,66.515 80.145,66.515 C80.4050013,66.515 80.6149992,66.5874993 80.775,66.7325 C80.9350008,66.8775007 81.015,67.0849986 81.015,67.355 L81.015,67.955 C81.2050009,67.5149978 81.4874981,67.1750012 81.8625,66.935 C82.2375019,66.6949988 82.6549977,66.5600001 83.115,66.53 L83.325,66.515 C83.5850013,66.4949999 83.7899993,66.5499993 83.94,66.68 Z" id="Includes-our" fill-opacity="0.6" fill="#FFFFFF"></path>
                <g id="feature-arrow-2" transform="translate(215.000000, 0.000000)" fill-rule="nonzero" fill="url(#linearGradient-2)">
                    <g id="a-link" transform="translate(93.985880, 58.884495) scale(-1, 1) rotate(-169.288000) translate(-93.985880, -58.884495) translate(6.485880, 15.884495)">
                        <path d="M171.383892,58.5551139 C172.010248,58.683919 172.622659,58.2815854 172.752123,57.6562316 L174.859501,47.4596433 C174.989069,46.8338235 174.586044,46.2216124 173.959318,46.0922316 C173.332593,45.9628508 172.719496,46.3652941 172.589928,46.9911139 L170.717733,56.0551335 L161.640599,54.1856433 C161.022847,54.0759432 160.429907,54.4772492 160.303115,55.0908609 C160.176324,55.7044727 160.561766,56.3073597 161.17255,56.4507806 L171.383892,58.5562708 L171.383892,58.5551139 Z M44.6932818,5.36256491 L44.4210257,4.23925119 L44.6932818,5.36372178 L44.6932818,5.36256491 Z M50.8520623,85.7645257 C51.4919044,85.7645257 52.0105989,85.2465806 52.0105989,84.607663 C52.0105989,83.9687453 51.4919044,83.4508002 50.8520623,83.4508002 L50.8520623,85.7645257 Z M172.585294,56.7862708 C143.362367,12.4309963 92.4110867,-7.31318018 44.4210257,4.23925119 L44.9655379,6.48819237 C91.9743184,-4.82823901 141.946635,14.4925257 170.650538,58.0588198 L172.585294,56.7862708 L172.585294,56.7862708 Z M44.4210257,4.23925119 C11.6367574,12.130212 -2.03397426,32.3394473 0.434867206,50.993859 C2.89444038,69.5858002 21.297794,85.7656826 50.8520623,85.7656826 L50.8520623,83.4519571 C22.1110867,83.4519571 4.99718428,67.8169571 2.73108672,50.690761 C0.471940377,33.6270355 12.8694404,14.2137218 44.9632209,6.4870355 L44.4198672,4.23925119 L44.4210257,4.23925119 Z" id="a"></path>
                    </g>
                </g>
                <path d="M95.1375,67.6625 C95.6425025,67.9475014 96.0349986,68.3449975 96.315,68.855 C96.5950014,69.3650025 96.735,69.9499967 96.735,70.61 C96.735,71.3000034 96.5775016,71.9099974 96.2625,72.44 C95.9474984,72.9700026 95.5025029,73.3824985 94.9275,73.6775 C94.3524971,73.9725015 93.6900037,74.12 92.94,74.12 C92.3199969,74.12 91.712503,74.017501 91.1175,73.8125 C90.522497,73.607499 90.0150021,73.3300017 89.595,72.98 C89.3649989,72.779999 89.25,72.5450014 89.25,72.275 C89.25,72.0549989 89.3124994,71.8675008 89.4375,71.7125 C89.5625006,71.5574992 89.7099992,71.48 89.88,71.48 C89.9800005,71.48 90.0749996,71.4974998 90.165,71.5325 C90.2550005,71.5675002 90.3599994,71.6249996 90.48,71.705 C90.880002,71.9850014 91.2699981,72.1999993 91.65,72.35 C92.0300019,72.5000008 92.4349979,72.575 92.865,72.575 C93.5250033,72.575 94.0299983,72.4100017 94.38,72.08 C94.7300018,71.7499984 94.905,71.2800031 94.905,70.67 C94.905,70.079997 94.7275018,69.6125017 94.3725,69.2675 C94.0174982,68.9224983 93.5300031,68.75 92.91,68.75 C92.5199981,68.75 92.1725015,68.8049994 91.8675,68.915 C91.5624985,69.0250005 91.2500016,69.2099987 90.93,69.47 C90.7399991,69.6000006 90.545001,69.665 90.345,69.665 C90.144999,69.665 89.9750007,69.6050006 89.835,69.485 C89.6949993,69.3649994 89.625,69.205001 89.625,69.005 L89.625,64.325 C89.625,64.0449986 89.7049992,63.8250008 89.865,63.665 C90.0250008,63.5049992 90.2499985,63.425 90.54,63.425 L95.535,63.425 C96.135003,63.425 96.435,63.6749975 96.435,64.175 C96.435,64.6750025 96.135003,64.925 95.535,64.925 L91.515,64.925 L91.515,67.775 C92.0250025,67.4149982 92.6499963,67.235 93.39,67.235 C94.0500033,67.235 94.6324975,67.3774986 95.1375,67.6625 Z M98.97,72.7475 C98.3099967,71.8224954 97.98,70.4750088 97.98,68.705 C97.98,66.9449912 98.3099967,65.6025046 98.97,64.6775 C99.6300033,63.7524954 100.584994,63.29 101.835,63.29 C103.085006,63.29 104.039997,63.7524954 104.7,64.6775 C105.360003,65.6025046 105.69,66.9449912 105.69,68.705 C105.69,70.4650088 105.360003,71.8099954 104.7,72.74 C104.039997,73.6700047 103.085006,74.135 101.835,74.135 C100.584994,74.135 99.6300033,73.6725046 98.97,72.7475 Z M103.32,71.6825 C103.630002,71.0574969 103.785,70.0650068 103.785,68.705 C103.785,67.3349931 103.630002,66.3425031 103.32,65.7275 C103.009998,65.1124969 102.515003,64.805 101.835,64.805 C101.154997,64.805 100.660002,65.1149969 100.35,65.735 C100.039998,66.3550031 99.885,67.3449932 99.885,68.705 C99.885,70.0650068 100.039998,71.0574969 100.35,71.6825 C100.660002,72.3075031 101.154997,72.62 101.835,72.62 C102.515003,72.62 103.009998,72.3075031 103.32,71.6825 Z M117.2775,66.965 C117.772502,67.2850016 118.157499,67.7374971 118.4325,68.3225 C118.707501,68.9075029 118.845,69.5799962 118.845,70.34 C118.845,71.1000038 118.707501,71.7649971 118.4325,72.335 C118.157499,72.9050028 117.775002,73.3449985 117.285,73.655 C116.794998,73.9650016 116.230003,74.12 115.59,74.12 C115.069997,74.12 114.605002,74.0100011 114.195,73.79 C113.784998,73.5699989 113.470001,73.265002 113.25,72.875 L113.25,75.935 C113.25,76.1950013 113.165001,76.3999992 112.995,76.55 C112.824999,76.7000007 112.600001,76.775 112.32,76.775 C112.039999,76.775 111.812501,76.6950008 111.6375,76.535 C111.462499,76.3749992 111.375,76.1650013 111.375,75.905 L111.375,67.4 C111.375,67.1299986 111.457499,66.9150008 111.6225,66.755 C111.787501,66.5949992 112.009999,66.515 112.29,66.515 C112.570001,66.515 112.794999,66.5949992 112.965,66.755 C113.135001,66.9150008 113.22,67.1299986 113.22,67.4 L113.22,67.775 C113.440001,67.3649979 113.757498,67.0475011 114.1725,66.8225 C114.587502,66.5974989 115.059997,66.485 115.59,66.485 C116.220003,66.485 116.782498,66.6449984 117.2775,66.965 Z M116.475,72.0575 C116.805002,71.652498 116.97,71.0800037 116.97,70.34 C116.97,69.5799962 116.805002,68.9900021 116.475,68.57 C116.144998,68.1499979 115.685003,67.94 115.095,67.94 C114.494997,67.94 114.032502,68.1449979 113.7075,68.555 C113.382498,68.965002 113.22,69.5499962 113.22,70.31 C113.22,71.0600037 113.382498,71.6399979 113.7075,72.05 C114.032502,72.460002 114.494997,72.665 115.095,72.665 C115.685003,72.665 116.144998,72.462502 116.475,72.0575 Z M121.7625,73.655 C121.197497,73.3449985 120.760002,72.9000029 120.45,72.32 C120.139998,71.7399971 119.985,71.0650039 119.985,70.295 C119.985,69.5249961 120.139998,68.8525029 120.45,68.2775 C120.760002,67.7024971 121.197497,67.2600015 121.7625,66.95 C122.327503,66.6399985 122.984996,66.485 123.735,66.485 C124.485004,66.485 125.142497,66.6399985 125.7075,66.95 C126.272503,67.2600015 126.707498,67.7024971 127.0125,68.2775 C127.317502,68.8525029 127.47,69.5249961 127.47,70.295 C127.47,71.0650039 127.317502,71.7399971 127.0125,72.32 C126.707498,72.9000029 126.272503,73.3449985 125.7075,73.655 C125.142497,73.9650016 124.485004,74.12 123.735,74.12 C122.984996,74.12 122.327503,73.9650016 121.7625,73.655 Z M125.115,72.065 C125.435002,71.664998 125.595,71.0750039 125.595,70.295 C125.595,69.5249961 125.435002,68.937502 125.115,68.5325 C124.794998,68.127498 124.335003,67.925 123.735,67.925 C123.134997,67.925 122.672502,68.127498 122.3475,68.5325 C122.022498,68.937502 121.86,69.5249961 121.86,70.295 C121.86,71.0750039 122.019998,71.664998 122.34,72.065 C122.660002,72.465002 123.119997,72.665 123.72,72.665 C124.330003,72.665 124.794998,72.465002 125.115,72.065 Z M129.2775,73.8575 C129.102499,73.7024992 129.015,73.4800015 129.015,73.19 L129.015,67.4 C129.015,67.1099986 129.102499,66.8900008 129.2775,66.74 C129.452501,66.5899993 129.674999,66.515 129.945,66.515 C130.215001,66.515 130.439999,66.5899993 130.62,66.74 C130.800001,66.8900008 130.89,67.1099986 130.89,67.4 L130.89,73.19 C130.89,73.4800015 130.800001,73.7024992 130.62,73.8575 C130.439999,74.0125008 130.215001,74.09 129.945,74.09 C129.674999,74.09 129.452501,74.0125008 129.2775,73.8575 Z M129.135,64.9025 C128.934999,64.7174991 128.835,64.4750015 128.835,64.175 C128.835,63.8749985 128.934999,63.6350009 129.135,63.455 C129.335001,63.2749991 129.604998,63.185 129.945,63.185 C130.275002,63.185 130.542499,63.2749991 130.7475,63.455 C130.952501,63.6350009 131.055,63.8749985 131.055,64.175 C131.055,64.4750015 130.955001,64.7174991 130.755,64.9025 C130.554999,65.0875009 130.285002,65.18 129.945,65.18 C129.604998,65.18 129.335001,65.0875009 129.135,64.9025 Z M139.05,67.235 C139.480002,67.7350025 139.695,68.4899949 139.695,69.5 L139.695,73.19 C139.695,73.4700014 139.612501,73.6899992 139.4475,73.85 C139.282499,74.0100008 139.055001,74.09 138.765,74.09 C138.474999,74.09 138.245001,74.0100008 138.075,73.85 C137.904999,73.6899992 137.82,73.4700014 137.82,73.19 L137.82,69.605 C137.82,69.0349971 137.712501,68.6200013 137.4975,68.36 C137.282499,68.0999987 136.945002,67.97 136.485,67.97 C135.944997,67.97 135.512502,68.1399983 135.1875,68.48 C134.862498,68.8200017 134.7,69.2749971 134.7,69.845 L134.7,73.19 C134.7,73.4700014 134.615001,73.6899992 134.445,73.85 C134.274999,74.0100008 134.045001,74.09 133.755,74.09 C133.464999,74.09 133.237501,74.0100008 133.0725,73.85 C132.907499,73.6899992 132.825,73.4700014 132.825,73.19 L132.825,67.385 C132.825,67.1249987 132.909999,66.9150008 133.08,66.755 C133.250001,66.5949992 133.479999,66.515 133.77,66.515 C134.030001,66.515 134.242499,66.5924992 134.4075,66.7475 C134.572501,66.9025008 134.655,67.1049988 134.655,67.355 L134.655,67.76 C134.905001,67.3499979 135.239998,67.0350011 135.66,66.815 C136.080002,66.5949989 136.554997,66.485 137.085,66.485 C137.965004,66.485 138.619998,66.7349975 139.05,67.235 Z M146.16,73.37 C146.16,73.6100012 146.062501,73.7924994 145.8675,73.9175 C145.672499,74.0425006 145.395002,74.0950001 145.035,74.075 L144.63,74.045 C142.949992,73.9249994 142.11,73.0250084 142.11,71.345 L142.11,68.075 L141.36,68.075 C141.089999,68.075 140.882501,68.0150006 140.7375,67.895 C140.592499,67.7749994 140.52,67.6000012 140.52,67.37 C140.52,67.1399988 140.592499,66.9650006 140.7375,66.845 C140.882501,66.7249994 141.089999,66.665 141.36,66.665 L142.11,66.665 L142.11,65.285 C142.11,65.0149987 142.194999,64.8000008 142.365,64.64 C142.535001,64.4799992 142.764999,64.4 143.055,64.4 C143.335001,64.4 143.559999,64.4799992 143.73,64.64 C143.900001,64.8000008 143.985,65.0149987 143.985,65.285 L143.985,66.665 L145.26,66.665 C145.530001,66.665 145.737499,66.7249994 145.8825,66.845 C146.027501,66.9650006 146.1,67.1399988 146.1,67.37 C146.1,67.6000012 146.027501,67.7749994 145.8825,67.895 C145.737499,68.0150006 145.530001,68.075 145.26,68.075 L143.985,68.075 L143.985,71.48 C143.985,72.2200037 144.324997,72.6149998 145.005,72.665 L145.41,72.695 C145.910003,72.7250002 146.16,72.9499979 146.16,73.37 Z M152.5275,73.655 C151.972497,73.3449985 151.545002,72.9050028 151.245,72.335 C150.944998,71.7649971 150.795,71.1000038 150.795,70.34 C150.795,69.5799962 150.952498,68.9075029 151.2675,68.3225 C151.582502,67.7374971 152.024997,67.2850016 152.595,66.965 C153.165003,66.6449984 153.819996,66.485 154.56,66.485 C154.950002,66.485 155.342498,66.5399994 155.7375,66.65 C156.132502,66.7600005 156.479998,66.9099991 156.78,67.1 C157.100002,67.310001 157.26,67.5749984 157.26,67.895 C157.26,68.1150011 157.207501,68.2924993 157.1025,68.4275 C156.997499,68.5625007 156.860001,68.63 156.69,68.63 C156.579999,68.63 156.465001,68.6050002 156.345,68.555 C156.224999,68.5049998 156.105001,68.4450003 155.985,68.375 C155.764999,68.2449993 155.555001,68.1425004 155.355,68.0675 C155.154999,67.9924996 154.925001,67.955 154.665,67.955 C154.044997,67.955 153.567502,68.157498 153.2325,68.5625 C152.897498,68.967502 152.73,69.5499962 152.73,70.31 C152.73,71.0600037 152.897498,71.637498 153.2325,72.0425 C153.567502,72.447502 154.044997,72.65 154.665,72.65 C154.915001,72.65 155.137499,72.6125004 155.3325,72.5375 C155.527501,72.4624996 155.744999,72.3600006 155.985,72.23 C156.135001,72.1399995 156.264999,72.0725002 156.375,72.0275 C156.485001,71.9824998 156.594999,71.96 156.705,71.96 C156.865001,71.96 156.999999,72.0299993 157.11,72.17 C157.220001,72.3100007 157.275,72.4849989 157.275,72.695 C157.275,72.8650009 157.2375,73.0124994 157.1625,73.1375 C157.0875,73.2625006 156.965001,73.3749995 156.795,73.475 C156.484998,73.675001 156.125002,73.8324994 155.715,73.9475 C155.304998,74.0625006 154.885002,74.12 154.455,74.12 C153.724996,74.12 153.082503,73.9650016 152.5275,73.655 Z M165.39,69.5 L165.39,73.19 C165.39,73.4700014 165.307501,73.6899992 165.1425,73.85 C164.977499,74.0100008 164.750001,74.09 164.46,74.09 C164.169999,74.09 163.940001,74.0100008 163.77,73.85 C163.599999,73.6899992 163.515,73.4700014 163.515,73.19 L163.515,69.5 C163.515,68.9699973 163.407501,68.5825012 163.1925,68.3375 C162.977499,68.0924988 162.640002,67.97 162.18,67.97 C161.639997,67.97 161.207502,68.1399983 160.8825,68.48 C160.557498,68.8200017 160.395,69.2749971 160.395,69.845 L160.395,73.19 C160.395,73.4700014 160.310001,73.6899992 160.14,73.85 C159.969999,74.0100008 159.740001,74.09 159.45,74.09 C159.159999,74.09 158.932501,74.0100008 158.7675,73.85 C158.602499,73.6899992 158.52,73.4700014 158.52,73.19 L158.52,64.22 C158.52,63.9599987 158.607499,63.7500008 158.7825,63.59 C158.957501,63.4299992 159.184999,63.35 159.465,63.35 C159.745001,63.35 159.969999,63.4249993 160.14,63.575 C160.310001,63.7250008 160.395,63.9299987 160.395,64.19 L160.395,67.685 C160.645001,67.2949981 160.977498,66.997501 161.3925,66.7925 C161.807502,66.587499 162.279997,66.485 162.81,66.485 C164.530009,66.485 165.39,67.4899899 165.39,69.5 Z M173.5125,72.185 C173.617501,72.3150007 173.67,72.4899989 173.67,72.71 C173.67,73.0200015 173.485002,73.279999 173.115,73.49 C172.774998,73.680001 172.390002,73.8324994 171.96,73.9475 C171.529998,74.0625006 171.120002,74.12 170.73,74.12 C169.549994,74.12 168.615003,73.7800034 167.925,73.1 C167.234997,72.4199966 166.89,71.4900059 166.89,70.31 C166.89,69.5599963 167.039999,68.8950029 167.34,68.315 C167.640002,67.7349971 168.062497,67.2850016 168.6075,66.965 C169.152503,66.6449984 169.769997,66.485 170.46,66.485 C171.120003,66.485 171.694998,66.6299985 172.185,66.92 C172.675002,67.2100015 173.054999,67.6199973 173.325,68.15 C173.595001,68.6800027 173.73,69.3049964 173.73,70.025 C173.73,70.4550022 173.540002,70.67 173.16,70.67 L168.735,70.67 C168.795,71.3600035 168.989998,71.8674984 169.32,72.1925 C169.650002,72.5175016 170.129997,72.68 170.76,72.68 C171.080002,72.68 171.362499,72.6400004 171.6075,72.56 C171.852501,72.4799996 172.129998,72.3700007 172.44,72.23 C172.740002,72.0699992 172.959999,71.99 173.1,71.99 C173.270001,71.99 173.407499,72.0549994 173.5125,72.185 Z M169.2825,68.285 C168.977498,68.6050016 168.795,69.064997 168.735,69.665 L172.125,69.665 C172.105,69.054997 171.955001,68.5925016 171.675,68.2775 C171.394999,67.9624984 171.005003,67.805 170.505,67.805 C169.994997,67.805 169.587502,67.9649984 169.2825,68.285 Z M176.5875,73.655 C176.032497,73.3449985 175.605002,72.9050028 175.305,72.335 C175.004999,71.7649971 174.855,71.1000038 174.855,70.34 C174.855,69.5799962 175.012498,68.9075029 175.3275,68.3225 C175.642502,67.7374971 176.084997,67.2850016 176.655,66.965 C177.225003,66.6449984 177.879996,66.485 178.62,66.485 C179.010002,66.485 179.402498,66.5399994 179.7975,66.65 C180.192502,66.7600005 180.539999,66.9099991 180.84,67.1 C181.160002,67.310001 181.32,67.5749984 181.32,67.895 C181.32,68.1150011 181.267501,68.2924993 181.1625,68.4275 C181.057499,68.5625007 180.920001,68.63 180.75,68.63 C180.639999,68.63 180.525001,68.6050002 180.405,68.555 C180.284999,68.5049998 180.165001,68.4450003 180.045,68.375 C179.824999,68.2449993 179.615001,68.1425004 179.415,68.0675 C179.214999,67.9924996 178.985001,67.955 178.725,67.955 C178.104997,67.955 177.627502,68.157498 177.2925,68.5625 C176.957498,68.967502 176.79,69.5499962 176.79,70.31 C176.79,71.0600037 176.957498,71.637498 177.2925,72.0425 C177.627502,72.447502 178.104997,72.65 178.725,72.65 C178.975001,72.65 179.197499,72.6125004 179.3925,72.5375 C179.587501,72.4624996 179.804999,72.3600006 180.045,72.23 C180.195001,72.1399995 180.324999,72.0725002 180.435,72.0275 C180.545001,71.9824998 180.654999,71.96 180.765,71.96 C180.925001,71.96 181.059999,72.0299993 181.17,72.17 C181.280001,72.3100007 181.335,72.4849989 181.335,72.695 C181.335,72.8650009 181.2975,73.0124994 181.2225,73.1375 C181.1475,73.2625006 181.025001,73.3749995 180.855,73.475 C180.544998,73.675001 180.185002,73.8324994 179.775,73.9475 C179.364998,74.0625006 178.945002,74.12 178.515,74.12 C177.784996,74.12 177.142503,73.9650016 176.5875,73.655 Z M189.405,73.19 C189.405,73.4200011 189.322501,73.6249991 189.1575,73.805 C188.992499,73.9850009 188.800001,74.075 188.58,74.075 C188.359999,74.075 188.155001,73.9850009 187.965,73.805 L184.455,70.625 L184.455,73.19 C184.455,73.4800015 184.365001,73.6999993 184.185,73.85 C184.004999,74.0000008 183.780001,74.075 183.51,74.075 C183.239999,74.075 183.017501,74.0000008 182.8425,73.85 C182.667499,73.6999993 182.58,73.4800015 182.58,73.19 L182.58,64.235 C182.58,63.9449986 182.667499,63.7250008 182.8425,63.575 C183.017501,63.4249993 183.239999,63.35 183.51,63.35 C183.780001,63.35 184.004999,63.4249993 184.185,63.575 C184.365001,63.7250008 184.455,63.9449986 184.455,64.235 L184.455,69.875 L187.665,66.8 C187.845001,66.6199991 188.049999,66.53 188.28,66.53 C188.510001,66.53 188.709999,66.6149992 188.88,66.785 C189.050001,66.9550009 189.135,67.1549988 189.135,67.385 C189.135,67.6150012 189.040001,67.824999 188.85,68.015 L186.495,70.205 L189.105,72.545 C189.305001,72.7350009 189.405,72.9499988 189.405,73.19 Z M190.8825,73.8575 C190.707499,73.7024992 190.62,73.4800015 190.62,73.19 L190.62,64.235 C190.62,63.9449986 190.707499,63.7250008 190.8825,63.575 C191.057501,63.4249993 191.279999,63.35 191.55,63.35 C191.820001,63.35 192.044999,63.4249993 192.225,63.575 C192.405001,63.7250008 192.495,63.9449986 192.495,64.235 L192.495,73.19 C192.495,73.4800015 192.405001,73.7024992 192.225,73.8575 C192.044999,74.0125008 191.820001,74.09 191.55,74.09 C191.279999,74.09 191.057501,74.0125008 190.8825,73.8575 Z M194.6925,73.8575 C194.517499,73.7024992 194.43,73.4800015 194.43,73.19 L194.43,67.4 C194.43,67.1099986 194.517499,66.8900008 194.6925,66.74 C194.867501,66.5899993 195.089999,66.515 195.36,66.515 C195.630001,66.515 195.854999,66.5899993 196.035,66.74 C196.215001,66.8900008 196.305,67.1099986 196.305,67.4 L196.305,73.19 C196.305,73.4800015 196.215001,73.7024992 196.035,73.8575 C195.854999,74.0125008 195.630001,74.09 195.36,74.09 C195.089999,74.09 194.867501,74.0125008 194.6925,73.8575 Z M194.55,64.9025 C194.349999,64.7174991 194.25,64.4750015 194.25,64.175 C194.25,63.8749985 194.349999,63.6350009 194.55,63.455 C194.750001,63.2749991 195.019998,63.185 195.36,63.185 C195.690002,63.185 195.957499,63.2749991 196.1625,63.455 C196.367501,63.6350009 196.47,63.8749985 196.47,64.175 C196.47,64.4750015 196.370001,64.7174991 196.17,64.9025 C195.969999,65.0875009 195.700002,65.18 195.36,65.18 C195.019998,65.18 194.750001,65.0875009 194.55,64.9025 Z M198.255,73.475 C197.934998,73.2849991 197.775,73.0150018 197.775,72.665 C197.775,72.464999 197.829999,72.3025006 197.94,72.1775 C198.050001,72.0524994 198.184999,71.99 198.345,71.99 C198.515001,71.99 198.749998,72.0699992 199.05,72.23 C199.370002,72.3800008 199.662499,72.4949996 199.9275,72.575 C200.192501,72.6550004 200.529998,72.695 200.94,72.695 C201.360002,72.695 201.687499,72.6250007 201.9225,72.485 C202.157501,72.3449993 202.275,72.1500012 202.275,71.9 C202.275,71.7299992 202.2275,71.5950005 202.1325,71.495 C202.0375,71.3949995 201.867501,71.3025004 201.6225,71.2175 C201.377499,71.1324996 201.005003,71.0350005 200.505,70.925 C199.614996,70.7449991 198.977502,70.4900016 198.5925,70.16 C198.207498,69.8299983 198.015,69.3750029 198.015,68.795 C198.015,68.3549978 198.144999,67.9575018 198.405,67.6025 C198.665001,67.2474982 199.022498,66.972501 199.4775,66.7775 C199.932502,66.582499 200.449997,66.485 201.03,66.485 C201.450002,66.485 201.854998,66.5374995 202.245,66.6425 C202.635002,66.7475005 202.984998,66.899999 203.295,67.1 C203.615002,67.300001 203.775,67.5649983 203.775,67.895 C203.775,68.095001 203.720001,68.2624993 203.61,68.3975 C203.499999,68.5325007 203.365001,68.6 203.205,68.6 C203.094999,68.6 202.987501,68.5775002 202.8825,68.5325 C202.777499,68.4874998 202.645001,68.4200004 202.485,68.33 C202.194999,68.1799993 201.945001,68.0675004 201.735,67.9925 C201.524999,67.9174996 201.265002,67.88 200.955,67.88 C200.584998,67.88 200.292501,67.9549993 200.0775,68.105 C199.862499,68.2550008 199.755,68.4599987 199.755,68.72 C199.755,68.9700012 199.864999,69.1599994 200.085,69.29 C200.305001,69.4200007 200.729997,69.5499994 201.36,69.68 C202.030003,69.8200007 202.554998,69.9799991 202.935,70.16 C203.315002,70.3400009 203.587499,70.5649987 203.7525,70.835 C203.917501,71.1050013 204,71.4499979 204,71.87 C204,72.5500034 203.717503,73.0949979 203.1525,73.505 C202.587497,73.915002 201.835005,74.12 200.895,74.12 C199.804995,74.12 198.925003,73.9050021 198.255,73.475 Z M210,73.37 C210,73.6100012 209.902501,73.7924994 209.7075,73.9175 C209.512499,74.0425006 209.235002,74.0950001 208.875,74.075 L208.47,74.045 C206.789992,73.9249994 205.95,73.0250084 205.95,71.345 L205.95,68.075 L205.2,68.075 C204.929999,68.075 204.722501,68.0150006 204.5775,67.895 C204.432499,67.7749994 204.36,67.6000012 204.36,67.37 C204.36,67.1399988 204.432499,66.9650006 204.5775,66.845 C204.722501,66.7249994 204.929999,66.665 205.2,66.665 L205.95,66.665 L205.95,65.285 C205.95,65.0149987 206.034999,64.8000008 206.205,64.64 C206.375001,64.4799992 206.604999,64.4 206.895,64.4 C207.175001,64.4 207.399999,64.4799992 207.57,64.64 C207.740001,64.8000008 207.825,65.0149987 207.825,65.285 L207.825,66.665 L209.1,66.665 C209.370001,66.665 209.577499,66.7249994 209.7225,66.845 C209.867501,66.9650006 209.94,67.1399988 209.94,67.37 C209.94,67.6000012 209.867501,67.7749994 209.7225,67.895 C209.577499,68.0150006 209.370001,68.075 209.1,68.075 L207.825,68.075 L207.825,71.48 C207.825,72.2200037 208.164997,72.6149998 208.845,72.665 L209.25,72.695 C209.750003,72.7250002 210,72.9499979 210,73.37 Z" id="50-point-checklist" fill="#FFFFFF"></path>
                <rect id="Rectangle-3" fill="#FFFFFF" x="88" y="76" width="22.5" height="1"></rect>
                <rect id="Rectangle-3" fill="#FFFFFF" x="114" y="76" width="95" height="1"></rect>
            </g>
        </g>
    </g>
</svg>