<?xml version="1.0" encoding="UTF-8"?>
<svg width="331px" height="38px" viewBox="0 0 331 38" version="1.1" xmlns="http://www.w3.org/2000/svg" xmlns:xlink="http://www.w3.org/1999/xlink">
    <!-- Generator: Sketch 43 (38999) - http://www.bohemiancoding.com/sketch -->
    <title>micleaners-logo</title>
    <desc>Created with Sketch.</desc>
    <defs></defs>
    <g id="Page-1" stroke="none" stroke-width="1" fill="none" fill-rule="evenodd">
        <g id="Final-A" transform="translate(-205.000000, -31.000000)">
            <g id="micleaners-logo" transform="translate(200.000000, 26.000000)">
                <path d="M187.443,30.839 C186.803663,30.6476657 186.283335,30.3886683 185.882,30.062 C185.667332,29.9033325 185.56,29.6793348 185.56,29.39 C185.56,29.193999 185.618333,29.0236674 185.735,28.879 C185.851667,28.7343326 185.989333,28.662 186.148,28.662 C186.316001,28.662 186.507332,28.7273327 186.722,28.858 C187.123335,29.1473348 187.543331,29.3573327 187.982,29.488 C188.420669,29.6186673 188.905997,29.684 189.438,29.684 C190.119337,29.684 190.641998,29.5650012 191.006,29.327 C191.370002,29.0889988 191.552,28.7413356 191.552,28.284 C191.552,27.9293316 191.381668,27.6563343 191.041,27.465 C190.700332,27.2736657 190.133337,27.0893342 189.34,26.912 C188.518663,26.7346658 187.851336,26.5293345 187.338,26.296 C186.824664,26.0626655 186.437335,25.7640018 186.176,25.4 C185.914665,25.0359982 185.784,24.5740028 185.784,24.014 C185.784,23.4353304 185.947332,22.9173356 186.274,22.46 C186.600668,22.0026644 187.055664,21.6456679 187.639,21.389 C188.222336,21.132332 188.877996,21.004 189.606,21.004 C190.940673,21.004 192.027996,21.3586631 192.868,22.068 C192.989334,22.1706672 193.075666,22.2709995 193.127,22.369 C193.178334,22.4670005 193.204,22.5906659 193.204,22.74 C193.204,22.936001 193.145667,23.1063326 193.029,23.251 C192.912333,23.3956674 192.774667,23.468 192.616,23.468 C192.522666,23.468 192.436334,23.4540001 192.357,23.426 C192.277666,23.3979999 192.172667,23.346667 192.042,23.272 C191.659331,22.9919986 191.288335,22.784334 190.929,22.649 C190.569665,22.513666 190.128669,22.446 189.606,22.446 C188.97133,22.446 188.469669,22.574332 188.101,22.831 C187.732331,23.0876679 187.548,23.4446644 187.548,23.902 C187.548,24.2846686 187.711332,24.5786656 188.038,24.784 C188.364668,24.9893344 188.919996,25.1806658 189.704,25.358 C190.534671,25.5446676 191.208997,25.7523322 191.727,25.981 C192.245003,26.2096678 192.641665,26.5013316 192.917,26.856 C193.192335,27.2106684 193.33,27.6539973 193.33,28.186 C193.33,28.7646696 193.169002,29.2756644 192.847,29.719 C192.524998,30.1623355 192.072336,30.5076654 191.489,30.755 C190.905664,31.0023346 190.236004,31.126 189.48,31.126 C188.76133,31.126 188.082337,31.0303343 187.443,30.839 Z M200.645,29.306 C200.743,29.4273339 200.792,29.5906656 200.792,29.796 C200.792,30.0853348 200.619335,30.327999 200.274,30.524 C199.956665,30.7013342 199.597335,30.8436661 199.196,30.951 C198.794665,31.0583339 198.412002,31.112 198.048,31.112 C196.946661,31.112 196.074003,30.7946698 195.43,30.16 C194.785997,29.5253302 194.464,28.6573388 194.464,27.556 C194.464,26.8559965 194.603999,26.235336 194.884,25.694 C195.164001,25.152664 195.558331,24.7326682 196.067,24.434 C196.575669,24.1353318 197.151997,23.986 197.796,23.986 C198.412003,23.986 198.948664,24.121332 199.406,24.392 C199.863336,24.662668 200.217999,25.0453309 200.47,25.54 C200.722001,26.0346691 200.848,26.6179966 200.848,27.29 C200.848,27.6913353 200.670668,27.892 200.316,27.892 L196.186,27.892 C196.242,28.5360032 196.423998,29.0096651 196.732,29.313 C197.040002,29.6163348 197.487997,29.768 198.076,29.768 C198.374668,29.768 198.638332,29.730667 198.867,29.656 C199.095668,29.581333 199.354665,29.4786673 199.644,29.348 C199.924001,29.1986659 200.129333,29.124 200.26,29.124 C200.418667,29.124 200.547,29.1846661 200.645,29.306 Z M196.697,25.666 C196.412332,25.9646682 196.242,26.3939972 196.186,26.954 L199.35,26.954 C199.331333,26.3846638 199.191335,25.9530015 198.93,25.659 C198.668665,25.3649985 198.304669,25.218 197.838,25.218 C197.361998,25.218 196.981668,25.3673318 196.697,25.666 Z M206.672,24.168 C206.812001,24.2893339 206.882,24.4713321 206.882,24.714 C206.882,24.9660013 206.821334,25.1526661 206.7,25.274 C206.578666,25.3953339 206.359335,25.4746665 206.042,25.512 L205.622,25.554 C205.071331,25.6100003 204.667668,25.7966651 204.411,26.114 C204.154332,26.4313349 204.026,26.8279976 204.026,27.304 L204.026,30.244 C204.026,30.514668 203.942001,30.7223326 203.774,30.867 C203.605999,31.0116674 203.396001,31.084 203.144,31.084 C202.891999,31.084 202.684334,31.0116674 202.521,30.867 C202.357666,30.7223326 202.276,30.514668 202.276,30.244 L202.276,24.826 C202.276,24.5646654 202.357666,24.3640007 202.521,24.224 C202.684334,24.0839993 202.887332,24.014 203.13,24.014 C203.372668,24.014 203.568666,24.081666 203.718,24.217 C203.867334,24.352334 203.942,24.5459987 203.942,24.798 L203.942,25.358 C204.119334,24.9473313 204.382998,24.6300011 204.733,24.406 C205.083002,24.1819989 205.472665,24.0560001 205.902,24.028 L206.098,24.014 C206.340668,23.9953332 206.531999,24.0466661 206.672,24.168 Z M212.713,24.14 C212.839001,24.0559996 212.976666,24.014 213.126,24.014 C213.340668,24.014 213.534332,24.0863326 213.707,24.231 C213.879668,24.3756674 213.966,24.5553323 213.966,24.77 C213.966,24.8820006 213.938,24.9939994 213.882,25.106 L211.292,30.524 C211.208,30.7013342 211.089001,30.8366662 210.935,30.93 C210.780999,31.0233338 210.610668,31.07 210.424,31.07 C210.246666,31.07 210.076334,31.0233338 209.913,30.93 C209.749666,30.8366662 209.626,30.7013342 209.542,30.524 L206.938,25.106 C206.891333,25.0126662 206.868,24.9053339 206.868,24.784 C206.868,24.5693323 206.958999,24.3873341 207.141,24.238 C207.323001,24.0886659 207.530666,24.014 207.764,24.014 C208.100002,24.014 208.347333,24.1773317 208.506,24.504 L210.466,28.83 L212.412,24.518 C212.486667,24.3499992 212.586999,24.2240004 212.713,24.14 Z M215.247,30.867 C215.083666,30.7223326 215.002,30.514668 215.002,30.244 L215.002,24.84 C215.002,24.569332 215.083666,24.3640007 215.247,24.224 C215.410334,24.0839993 215.617999,24.014 215.87,24.014 C216.122001,24.014 216.331999,24.0839993 216.5,24.224 C216.668001,24.3640007 216.752,24.569332 216.752,24.84 L216.752,30.244 C216.752,30.514668 216.668001,30.7223326 216.5,30.867 C216.331999,31.0116674 216.122001,31.084 215.87,31.084 C215.617999,31.084 215.410334,31.0116674 215.247,30.867 Z M215.114,22.509 C214.927332,22.3363325 214.834,22.1100014 214.834,21.83 C214.834,21.5499986 214.927332,21.3260008 215.114,21.158 C215.300668,20.9899992 215.552665,20.906 215.87,20.906 C216.178002,20.906 216.427666,20.9899992 216.619,21.158 C216.810334,21.3260008 216.906,21.5499986 216.906,21.83 C216.906,22.1100014 216.812668,22.3363325 216.626,22.509 C216.439332,22.6816675 216.187335,22.768 215.87,22.768 C215.552665,22.768 215.300668,22.6816675 215.114,22.509 Z M219.797,30.678 C219.278997,30.3886652 218.880001,29.9780027 218.6,29.446 C218.319999,28.9139973 218.18,28.2933369 218.18,27.584 C218.18,26.8746631 218.326999,26.2470027 218.621,25.701 C218.915001,25.1549973 219.327997,24.7326682 219.86,24.434 C220.392003,24.1353318 221.00333,23.986 221.694,23.986 C222.058002,23.986 222.424331,24.0373328 222.793,24.14 C223.161669,24.2426672 223.485999,24.3826658 223.766,24.56 C224.064668,24.756001 224.214,25.0033318 224.214,25.302 C224.214,25.5073344 224.165,25.6729994 224.067,25.799 C223.969,25.9250006 223.840667,25.988 223.682,25.988 C223.579333,25.988 223.472001,25.9646669 223.36,25.918 C223.247999,25.8713331 223.136001,25.8153337 223.024,25.75 C222.818666,25.6286661 222.622668,25.5330003 222.436,25.463 C222.249332,25.3929996 222.034668,25.358 221.792,25.358 C221.21333,25.358 220.767668,25.5469981 220.455,25.925 C220.142332,26.3030019 219.986,26.8466631 219.986,27.556 C219.986,28.2560035 220.142332,28.7949981 220.455,29.173 C220.767668,29.5510019 221.21333,29.74 221.792,29.74 C222.025335,29.74 222.232999,29.7050003 222.415,29.635 C222.597001,29.5649996 222.799999,29.4693339 223.024,29.348 C223.164001,29.2639996 223.285333,29.2010002 223.388,29.159 C223.490667,29.1169998 223.593333,29.096 223.696,29.096 C223.845334,29.096 223.971333,29.1613327 224.074,29.292 C224.176667,29.4226673 224.228,29.585999 224.228,29.782 C224.228,29.9406675 224.193,30.0783327 224.123,30.195 C224.053,30.3116672 223.938667,30.4166662 223.78,30.51 C223.490665,30.6966676 223.154669,30.8436661 222.772,30.951 C222.389331,31.0583339 221.997335,31.112 221.596,31.112 C220.914663,31.112 220.315003,30.9673348 219.797,30.678 Z M225.635,30.867 C225.471666,30.7223326 225.39,30.514668 225.39,30.244 L225.39,24.84 C225.39,24.569332 225.471666,24.3640007 225.635,24.224 C225.798334,24.0839993 226.005999,24.014 226.258,24.014 C226.510001,24.014 226.719999,24.0839993 226.888,24.224 C227.056001,24.3640007 227.14,24.569332 227.14,24.84 L227.14,30.244 C227.14,30.514668 227.056001,30.7223326 226.888,30.867 C226.719999,31.0116674 226.510001,31.084 226.258,31.084 C226.005999,31.084 225.798334,31.0116674 225.635,30.867 Z M225.502,22.509 C225.315332,22.3363325 225.222,22.1100014 225.222,21.83 C225.222,21.5499986 225.315332,21.3260008 225.502,21.158 C225.688668,20.9899992 225.940665,20.906 226.258,20.906 C226.566002,20.906 226.815666,20.9899992 227.007,21.158 C227.198334,21.3260008 227.294,21.5499986 227.294,21.83 C227.294,22.1100014 227.200668,22.3363325 227.014,22.509 C226.827332,22.6816675 226.575335,22.768 226.258,22.768 C225.940665,22.768 225.688668,22.6816675 225.502,22.509 Z M234.756,24.686 C235.157335,25.152669 235.358,25.8573286 235.358,26.8 L235.358,30.244 C235.358,30.5053346 235.281001,30.7106659 235.127,30.86 C234.972999,31.0093341 234.760668,31.084 234.49,31.084 C234.219332,31.084 234.004667,31.0093341 233.846,30.86 C233.687333,30.7106659 233.608,30.5053346 233.608,30.244 L233.608,26.898 C233.608,26.3659973 233.507668,25.9786679 233.307,25.736 C233.106332,25.4933321 232.791335,25.372 232.362,25.372 C231.857997,25.372 231.454335,25.5306651 231.151,25.848 C230.847665,26.1653349 230.696,26.5899973 230.696,27.122 L230.696,30.244 C230.696,30.5053346 230.616667,30.7106659 230.458,30.86 C230.299333,31.0093341 230.084668,31.084 229.814,31.084 C229.543332,31.084 229.331001,31.0093341 229.177,30.86 C229.022999,30.7106659 228.946,30.5053346 228.946,30.244 L228.946,24.826 C228.946,24.5833321 229.025333,24.3873341 229.184,24.238 C229.342667,24.0886659 229.557332,24.014 229.828,24.014 C230.070668,24.014 230.268999,24.0863326 230.423,24.231 C230.577001,24.3756674 230.654,24.5646655 230.654,24.798 L230.654,25.176 C230.887335,24.7933314 231.199998,24.4993344 231.592,24.294 C231.984002,24.0886656 232.427331,23.986 232.922,23.986 C233.743337,23.986 234.354665,24.219331 234.756,24.686 Z M243.562,24.238 C243.720667,24.3873341 243.8,24.5879987 243.8,24.84 L243.8,30.37 C243.8,31.4433387 243.501336,32.2553306 242.904,32.806 C242.306664,33.3566694 241.424673,33.632 240.258,33.632 C239.240662,33.632 238.391337,33.4406686 237.71,33.058 C237.364665,32.8526656 237.192,32.6053348 237.192,32.316 C237.192,32.1106656 237.241,31.9473339 237.339,31.826 C237.437,31.7046661 237.565333,31.644 237.724,31.644 C237.808,31.644 237.910666,31.6649998 238.032,31.707 C238.153334,31.7490002 238.279333,31.7979997 238.41,31.854 C238.746002,31.9940007 239.046999,32.101333 239.313,32.176 C239.579001,32.250667 239.884665,32.288 240.23,32.288 C241.452673,32.288 242.064,31.6906726 242.064,30.496 L242.064,29.6 C241.858666,29.9826686 241.560002,30.2789989 241.168,30.489 C240.775998,30.699001 240.328003,30.804 239.824,30.804 C239.226664,30.804 238.697002,30.6616681 238.235,30.377 C237.772998,30.0923319 237.411335,29.6933359 237.15,29.18 C236.888665,28.6666641 236.758,28.0740034 236.758,27.402 C236.758,26.7299966 236.886332,26.1350026 237.143,25.617 C237.399668,25.0989974 237.761331,24.6976681 238.228,24.413 C238.694669,24.1283319 239.226664,23.986 239.824,23.986 C240.328003,23.986 240.775998,24.0909989 241.168,24.301 C241.560002,24.511001 241.858666,24.8073314 242.064,25.19 L242.064,24.826 C242.064,24.5833321 242.143333,24.3873341 242.302,24.238 C242.460667,24.0886659 242.670665,24.014 242.932,24.014 C243.193335,24.014 243.403333,24.0886659 243.562,24.238 Z M241.595,28.9 C241.907668,28.5359982 242.064,28.0366698 242.064,27.402 C242.064,26.7579968 241.907668,26.2540018 241.595,25.89 C241.282332,25.5259982 240.846003,25.344 240.286,25.344 C239.735331,25.344 239.301335,25.5259982 238.984,25.89 C238.666665,26.2540018 238.508,26.7579968 238.508,27.402 C238.508,28.0366698 238.666665,28.5359982 238.984,28.9 C239.301335,29.2640018 239.735331,29.446 240.286,29.446 C240.846003,29.446 241.282332,29.2640018 241.595,28.9 Z M258.948,21.305 C259.106667,21.4683341 259.186,21.685332 259.186,21.956 L259.186,30.244 C259.186,30.5053346 259.111334,30.7106659 258.962,30.86 C258.812666,31.0093341 258.616668,31.084 258.374,31.084 C258.131332,31.084 257.940001,31.0093341 257.8,30.86 C257.659999,30.7106659 257.59,30.5053346 257.59,30.244 L257.59,24.476 L255.21,28.984 C255.097999,29.1893344 254.976667,29.3409995 254.846,29.439 C254.715333,29.5370005 254.561334,29.586 254.384,29.586 C254.206666,29.586 254.052667,29.5393338 253.922,29.446 C253.791333,29.3526662 253.670001,29.1986677 253.558,28.984 L251.164,24.546 L251.164,30.244 C251.164,30.4960013 251.091667,30.6989992 250.947,30.853 C250.802333,31.0070008 250.608668,31.084 250.366,31.084 C250.123332,31.084 249.932001,31.0093341 249.792,30.86 C249.651999,30.7106659 249.582,30.5053346 249.582,30.244 L249.582,21.956 C249.582,21.685332 249.658999,21.4683341 249.813,21.305 C249.967001,21.1416658 250.174665,21.06 250.436,21.06 C250.800002,21.06 251.084666,21.2606647 251.29,21.662 L254.398,27.584 L257.492,21.662 C257.697334,21.2606647 257.972665,21.06 258.318,21.06 C258.579335,21.06 258.789333,21.1416658 258.948,21.305 Z M266.977,29.306 C267.075,29.4273339 267.124,29.5906656 267.124,29.796 C267.124,30.0853348 266.951335,30.327999 266.606,30.524 C266.288665,30.7013342 265.929335,30.8436661 265.528,30.951 C265.126665,31.0583339 264.744002,31.112 264.38,31.112 C263.278661,31.112 262.406003,30.7946698 261.762,30.16 C261.117997,29.5253302 260.796,28.6573388 260.796,27.556 C260.796,26.8559965 260.935999,26.235336 261.216,25.694 C261.496001,25.152664 261.890331,24.7326682 262.399,24.434 C262.907669,24.1353318 263.483997,23.986 264.128,23.986 C264.744003,23.986 265.280664,24.121332 265.738,24.392 C266.195336,24.662668 266.549999,25.0453309 266.802,25.54 C267.054001,26.0346691 267.18,26.6179966 267.18,27.29 C267.18,27.6913353 267.002668,27.892 266.648,27.892 L262.518,27.892 C262.574,28.5360032 262.755998,29.0096651 263.064,29.313 C263.372002,29.6163348 263.819997,29.768 264.408,29.768 C264.706668,29.768 264.970332,29.730667 265.199,29.656 C265.427668,29.581333 265.686665,29.4786673 265.976,29.348 C266.256001,29.1986659 266.461333,29.124 266.592,29.124 C266.750667,29.124 266.879,29.1846661 266.977,29.306 Z M263.029,25.666 C262.744332,25.9646682 262.574,26.3939972 262.518,26.954 L265.682,26.954 C265.663333,26.3846638 265.523335,25.9530015 265.262,25.659 C265.000665,25.3649985 264.636669,25.218 264.17,25.218 C263.693998,25.218 263.313668,25.3673318 263.029,25.666 Z M272.864,30.412 C272.864,30.6360011 272.773001,30.8063327 272.591,30.923 C272.408999,31.0396672 272.150002,31.0886668 271.814,31.07 L271.436,31.042 C269.867992,30.9299994 269.084,30.0900078 269.084,28.522 L269.084,25.47 L268.384,25.47 C268.131999,25.47 267.938334,25.4140006 267.803,25.302 C267.667666,25.1899994 267.6,25.0266677 267.6,24.812 C267.6,24.5973323 267.667666,24.4340006 267.803,24.322 C267.938334,24.2099994 268.131999,24.154 268.384,24.154 L269.084,24.154 L269.084,22.866 C269.084,22.6139987 269.163333,22.4133341 269.322,22.264 C269.480667,22.1146659 269.695332,22.04 269.966,22.04 C270.227335,22.04 270.437333,22.1146659 270.596,22.264 C270.754667,22.4133341 270.834,22.6139987 270.834,22.866 L270.834,24.154 L272.024,24.154 C272.276001,24.154 272.469666,24.2099994 272.605,24.322 C272.740334,24.4340006 272.808,24.5973323 272.808,24.812 C272.808,25.0266677 272.740334,25.1899994 272.605,25.302 C272.469666,25.4140006 272.276001,25.47 272.024,25.47 L270.834,25.47 L270.834,28.648 C270.834,29.3386701 271.15133,29.7073331 271.786,29.754 L272.164,29.782 C272.630669,29.8100001 272.864,30.019998 272.864,30.412 Z M278.17,24.168 C278.310001,24.2893339 278.38,24.4713321 278.38,24.714 C278.38,24.9660013 278.319334,25.1526661 278.198,25.274 C278.076666,25.3953339 277.857335,25.4746665 277.54,25.512 L277.12,25.554 C276.569331,25.6100003 276.165668,25.7966651 275.909,26.114 C275.652332,26.4313349 275.524,26.8279976 275.524,27.304 L275.524,30.244 C275.524,30.514668 275.440001,30.7223326 275.272,30.867 C275.103999,31.0116674 274.894001,31.084 274.642,31.084 C274.389999,31.084 274.182334,31.0116674 274.019,30.867 C273.855666,30.7223326 273.774,30.514668 273.774,30.244 L273.774,24.826 C273.774,24.5646654 273.855666,24.3640007 274.019,24.224 C274.182334,24.0839993 274.385332,24.014 274.628,24.014 C274.870668,24.014 275.066666,24.081666 275.216,24.217 C275.365334,24.352334 275.44,24.5459987 275.44,24.798 L275.44,25.358 C275.617334,24.9473313 275.880998,24.6300011 276.231,24.406 C276.581002,24.1819989 276.970665,24.0560001 277.4,24.028 L277.596,24.014 C277.838668,23.9953332 278.029999,24.0466661 278.17,24.168 Z M280.417,30.678 C279.889664,30.3886652 279.481335,29.973336 279.192,29.432 C278.902665,28.890664 278.758,28.2606703 278.758,27.542 C278.758,26.8233297 278.902665,26.1956693 279.192,25.659 C279.481335,25.1223306 279.889664,24.7093348 280.417,24.42 C280.944336,24.1306652 281.557997,23.986 282.258,23.986 C282.958004,23.986 283.571664,24.1306652 284.099,24.42 C284.626336,24.7093348 285.032332,25.1223306 285.317,25.659 C285.601668,26.1956693 285.744,26.8233297 285.744,27.542 C285.744,28.2606703 285.601668,28.890664 285.317,29.432 C285.032332,29.973336 284.626336,30.3886652 284.099,30.678 C283.571664,30.9673348 282.958004,31.112 282.258,31.112 C281.557997,31.112 280.944336,30.9673348 280.417,30.678 Z M283.546,29.194 C283.844668,28.8206648 283.994,28.2700036 283.994,27.542 C283.994,26.8233297 283.844668,26.2750019 283.546,25.897 C283.247332,25.5189981 282.818003,25.33 282.258,25.33 C281.697997,25.33 281.266335,25.5189981 280.963,25.897 C280.659665,26.2750019 280.508,26.8233297 280.508,27.542 C280.508,28.2700036 280.657332,28.8206648 280.956,29.194 C281.254668,29.5673352 281.683997,29.754 282.244,29.754 C282.813336,29.754 283.247332,29.5673352 283.546,29.194 Z M291.365,30.776 C291.210999,30.6266659 291.134,30.416668 291.134,30.146 L291.134,21.984 C291.134,21.713332 291.210999,21.5033341 291.365,21.354 C291.519001,21.2046659 291.731332,21.13 292.002,21.13 L294.774,21.13 C296.388675,21.13 297.641662,21.5616623 298.533,22.425 C299.424338,23.2883376 299.87,24.4993255 299.87,26.058 C299.87,27.6260078 299.424338,28.8416623 298.533,29.705 C297.641662,30.5683376 296.388675,31 294.774,31 L292.002,31 C291.731332,31 291.519001,30.9253341 291.365,30.776 Z M294.662,29.53 C296.930011,29.53 298.064,28.3726782 298.064,26.058 C298.064,23.7526551 296.930011,22.6 294.662,22.6 L292.94,22.6 L292.94,29.53 L294.662,29.53 Z M307.339,29.306 C307.437,29.4273339 307.486,29.5906656 307.486,29.796 C307.486,30.0853348 307.313335,30.327999 306.968,30.524 C306.650665,30.7013342 306.291335,30.8436661 305.89,30.951 C305.488665,31.0583339 305.106002,31.112 304.742,31.112 C303.640661,31.112 302.768003,30.7946698 302.124,30.16 C301.479997,29.5253302 301.158,28.6573388 301.158,27.556 C301.158,26.8559965 301.297999,26.235336 301.578,25.694 C301.858001,25.152664 302.252331,24.7326682 302.761,24.434 C303.269669,24.1353318 303.845997,23.986 304.49,23.986 C305.106003,23.986 305.642664,24.121332 306.1,24.392 C306.557336,24.662668 306.911999,25.0453309 307.164,25.54 C307.416001,26.0346691 307.542,26.6179966 307.542,27.29 C307.542,27.6913353 307.364668,27.892 307.01,27.892 L302.88,27.892 C302.936,28.5360032 303.117998,29.0096651 303.426,29.313 C303.734002,29.6163348 304.181997,29.768 304.77,29.768 C305.068668,29.768 305.332332,29.730667 305.561,29.656 C305.789668,29.581333 306.048665,29.4786673 306.338,29.348 C306.618001,29.1986659 306.823333,29.124 306.954,29.124 C307.112667,29.124 307.241,29.1846661 307.339,29.306 Z M303.391,25.666 C303.106332,25.9646682 302.936,26.3939972 302.88,26.954 L306.044,26.954 C306.025333,26.3846638 305.885335,25.9530015 305.624,25.659 C305.362665,25.3649985 304.998669,25.218 304.532,25.218 C304.055998,25.218 303.675668,25.3673318 303.391,25.666 Z M313.226,30.412 C313.226,30.6360011 313.135001,30.8063327 312.953,30.923 C312.770999,31.0396672 312.512002,31.0886668 312.176,31.07 L311.798,31.042 C310.229992,30.9299994 309.446,30.0900078 309.446,28.522 L309.446,25.47 L308.746,25.47 C308.493999,25.47 308.300334,25.4140006 308.165,25.302 C308.029666,25.1899994 307.962,25.0266677 307.962,24.812 C307.962,24.5973323 308.029666,24.4340006 308.165,24.322 C308.300334,24.2099994 308.493999,24.154 308.746,24.154 L309.446,24.154 L309.446,22.866 C309.446,22.6139987 309.525333,22.4133341 309.684,22.264 C309.842667,22.1146659 310.057332,22.04 310.328,22.04 C310.589335,22.04 310.799333,22.1146659 310.958,22.264 C311.116667,22.4133341 311.196,22.6139987 311.196,22.866 L311.196,24.154 L312.386,24.154 C312.638001,24.154 312.831666,24.2099994 312.967,24.322 C313.102334,24.4340006 313.17,24.5973323 313.17,24.812 C313.17,25.0266677 313.102334,25.1899994 312.967,25.302 C312.831666,25.4140006 312.638001,25.47 312.386,25.47 L311.196,25.47 L311.196,28.648 C311.196,29.3386701 311.51333,29.7073331 312.148,29.754 L312.526,29.782 C312.992669,29.8100001 313.226,30.019998 313.226,30.412 Z M318.532,24.168 C318.672001,24.2893339 318.742,24.4713321 318.742,24.714 C318.742,24.9660013 318.681334,25.1526661 318.56,25.274 C318.438666,25.3953339 318.219335,25.4746665 317.902,25.512 L317.482,25.554 C316.931331,25.6100003 316.527668,25.7966651 316.271,26.114 C316.014332,26.4313349 315.886,26.8279976 315.886,27.304 L315.886,30.244 C315.886,30.514668 315.802001,30.7223326 315.634,30.867 C315.465999,31.0116674 315.256001,31.084 315.004,31.084 C314.751999,31.084 314.544334,31.0116674 314.381,30.867 C314.217666,30.7223326 314.136,30.514668 314.136,30.244 L314.136,24.826 C314.136,24.5646654 314.217666,24.3640007 314.381,24.224 C314.544334,24.0839993 314.747332,24.014 314.99,24.014 C315.232668,24.014 315.428666,24.081666 315.578,24.217 C315.727334,24.352334 315.802,24.5459987 315.802,24.798 L315.802,25.358 C315.979334,24.9473313 316.242998,24.6300011 316.593,24.406 C316.943002,24.1819989 317.332665,24.0560001 317.762,24.028 L317.958,24.014 C318.200668,23.9953332 318.391999,24.0466661 318.532,24.168 Z M320.779,30.678 C320.251664,30.3886652 319.843335,29.973336 319.554,29.432 C319.264665,28.890664 319.12,28.2606703 319.12,27.542 C319.12,26.8233297 319.264665,26.1956693 319.554,25.659 C319.843335,25.1223306 320.251664,24.7093348 320.779,24.42 C321.306336,24.1306652 321.919997,23.986 322.62,23.986 C323.320004,23.986 323.933664,24.1306652 324.461,24.42 C324.988336,24.7093348 325.394332,25.1223306 325.679,25.659 C325.963668,26.1956693 326.106,26.8233297 326.106,27.542 C326.106,28.2606703 325.963668,28.890664 325.679,29.432 C325.394332,29.973336 324.988336,30.3886652 324.461,30.678 C323.933664,30.9673348 323.320004,31.112 322.62,31.112 C321.919997,31.112 321.306336,30.9673348 320.779,30.678 Z M323.908,29.194 C324.206668,28.8206648 324.356,28.2700036 324.356,27.542 C324.356,26.8233297 324.206668,26.2750019 323.908,25.897 C323.609332,25.5189981 323.180003,25.33 322.62,25.33 C322.059997,25.33 321.628335,25.5189981 321.325,25.897 C321.021665,26.2750019 320.87,26.8233297 320.87,27.542 C320.87,28.2700036 321.019332,28.8206648 321.318,29.194 C321.616668,29.5673352 322.045997,29.754 322.606,29.754 C323.175336,29.754 323.609332,29.5673352 323.908,29.194 Z M327.793,30.867 C327.629666,30.7223326 327.548,30.514668 327.548,30.244 L327.548,24.84 C327.548,24.569332 327.629666,24.3640007 327.793,24.224 C327.956334,24.0839993 328.163999,24.014 328.416,24.014 C328.668001,24.014 328.877999,24.0839993 329.046,24.224 C329.214001,24.3640007 329.298,24.569332 329.298,24.84 L329.298,30.244 C329.298,30.514668 329.214001,30.7223326 329.046,30.867 C328.877999,31.0116674 328.668001,31.084 328.416,31.084 C328.163999,31.084 327.956334,31.0116674 327.793,30.867 Z M327.66,22.509 C327.473332,22.3363325 327.38,22.1100014 327.38,21.83 C327.38,21.5499986 327.473332,21.3260008 327.66,21.158 C327.846668,20.9899992 328.098665,20.906 328.416,20.906 C328.724002,20.906 328.973666,20.9899992 329.165,21.158 C329.356334,21.3260008 329.452,21.5499986 329.452,21.83 C329.452,22.1100014 329.358668,22.3363325 329.172,22.509 C328.985332,22.6816675 328.733335,22.768 328.416,22.768 C328.098665,22.768 327.846668,22.6816675 327.66,22.509 Z M335.36,30.412 C335.36,30.6360011 335.269001,30.8063327 335.087,30.923 C334.904999,31.0396672 334.646002,31.0886668 334.31,31.07 L333.932,31.042 C332.363992,30.9299994 331.58,30.0900078 331.58,28.522 L331.58,25.47 L330.88,25.47 C330.627999,25.47 330.434334,25.4140006 330.299,25.302 C330.163666,25.1899994 330.096,25.0266677 330.096,24.812 C330.096,24.5973323 330.163666,24.4340006 330.299,24.322 C330.434334,24.2099994 330.627999,24.154 330.88,24.154 L331.58,24.154 L331.58,22.866 C331.58,22.6139987 331.659333,22.4133341 331.818,22.264 C331.976667,22.1146659 332.191332,22.04 332.462,22.04 C332.723335,22.04 332.933333,22.1146659 333.092,22.264 C333.250667,22.4133341 333.33,22.6139987 333.33,22.866 L333.33,24.154 L334.52,24.154 C334.772001,24.154 334.965666,24.2099994 335.101,24.322 C335.236334,24.4340006 335.304,24.5973323 335.304,24.812 C335.304,25.0266677 335.236334,25.1899994 335.101,25.302 C334.965666,25.4140006 334.772001,25.47 334.52,25.47 L333.33,25.47 L333.33,28.648 C333.33,29.3386701 333.64733,29.7073331 334.282,29.754 L334.66,29.782 C335.126669,29.8100001 335.36,30.019998 335.36,30.412 Z" id="Servicing-Metro-Detr" fill="#FFFFFF" opacity="0.600000024"></path>
                <g id="logo" transform="translate(23.334524, 24.000000) rotate(45.000000) translate(-23.334524, -24.000000) translate(11.334524, 3.000000)">
                    <ellipse id="Oval-2" fill="#00BED9" cx="12" cy="12.2181818" rx="12" ry="12.2181818"></ellipse>
                    <ellipse id="Oval-2" fill="#00BED9" cx="12" cy="29.7818182" rx="12" ry="12.2181818"></ellipse>
                    <path d="M3.75,21 C5.90943128,23.127307 8.8511913,24.4363636 12.0932381,24.4363636 C15.335285,24.4363636 18.277045,23.127307 20.4364763,21 C18.277045,18.872693 15.335285,17.5636364 12.0932381,17.5636364 C8.8511913,17.5636364 5.90943128,18.872693 3.75,21 L3.75,21 Z" id="Combined-Shape" fill="#02354D"></path>
                </g>
                <path d="M60.9491416,14.0281563 L62.7363984,27.0086291 L69.0110839,14.0281563 L74.8743146,14.0281563 L71.6341082,32.7406003 L67.2109692,32.7406003 L68.0081628,28.152453 L69.9111412,19.6958677 L63.3535806,32.7406003 L60.4348232,32.7406003 L58.3132594,19.2074935 L57.1303269,28.5894194 L56.397423,32.7406003 L52,32.7406003 L55.2402065,14.0281563 L60.9491416,14.0281563 Z M78.0788861,32.7406003 L73.6814631,32.7406003 L76.9345275,14.0281563 L81.3190926,14.0281563 L78.0788861,32.7406003 Z M95.7743809,26.3660315 C95.6629447,27.6769373 95.2322072,28.8421694 94.4821557,29.8617628 C93.7321042,30.8813562 92.7463369,31.6653175 91.5248244,32.2136702 C90.3033119,32.762023 88.981098,33.0233434 87.5581431,32.9976394 C85.6037231,32.9547993 84.065069,32.3250599 82.9421347,31.1084023 C81.8192004,29.8917446 81.2063103,28.2424271 81.1034461,26.1604002 C81.026298,24.7723823 81.178449,23.2601509 81.5599038,21.6236607 C81.9413586,19.9871704 82.5628205,18.5627599 83.4243083,17.3503862 C84.2857961,16.1380125 85.3015649,15.2298169 86.4716453,14.6257721 C87.6417257,14.0217273 88.9210801,13.7325612 90.309747,13.7582652 C92.3498872,13.7925373 93.9635453,14.4051409 95.1507697,15.5960946 C96.3379942,16.7870482 96.9830288,18.4277978 97.085893,20.5183927 L92.701328,20.5055407 C92.718472,19.3659952 92.5127467,18.5520463 92.0841458,18.0636696 C91.6555449,17.5752929 90.9783657,17.3139725 90.0525878,17.2797005 C87.738143,17.2025884 86.3280673,19.0018438 85.8223182,22.6775209 C85.5908737,24.3397151 85.4751532,25.526367 85.4751532,26.2375119 C85.4322932,28.3452428 86.2123351,29.4290801 87.8153023,29.4890561 C88.8525165,29.5233282 89.6797038,29.2684337 90.296889,28.7243649 C90.9140743,28.1802962 91.3083812,27.4113286 91.4798216,26.4174393 L95.7743809,26.3660315 Z M100.123311,32.7406003 L95.8801835,32.7406003 L99.3004014,13 L103.543529,13 L100.123311,32.7406003 Z M108.599647,32.9976394 C107.356704,32.9890714 106.248788,32.6956214 105.275864,32.1172806 C104.30294,31.5389398 103.5679,30.7335588 103.070723,29.7011134 C102.573546,28.668668 102.376393,27.5312815 102.479257,26.2889198 L102.517831,25.9290651 C102.749275,23.6414059 103.544318,21.8314406 104.902983,20.4991148 C106.261648,19.1667889 107.926737,18.5263397 109.898301,18.5777477 C111.089812,18.5948838 112.109866,18.8969017 112.958496,19.4838105 C113.807126,20.0707193 114.428588,20.8803842 114.822901,21.9128296 C115.217213,22.9452751 115.345792,24.1040813 115.20864,25.389283 L114.964338,27.1500006 L106.683811,27.1500006 C106.700955,27.8782816 106.90668,28.4694656 107.300993,28.9235702 C107.695306,29.3776748 108.269622,29.6175755 109.02396,29.6432796 C110.249758,29.6775516 111.351246,29.206318 112.328456,28.2295647 L114.102855,30.5814722 C113.579962,31.3268892 112.849208,31.9116472 111.910572,32.3357638 C110.971936,32.7598804 109.945453,32.9805034 108.83109,32.9976394 L108.599647,32.9976394 Z M109.628284,21.9064037 C109.028243,21.8892676 108.5075,22.0777611 108.066042,22.4718896 C107.624583,22.8660182 107.240991,23.5257452 106.915254,24.4510904 L111.145523,24.4510904 L111.222671,24.0783838 C111.274103,23.7785034 111.282675,23.4957632 111.248387,23.2301549 C111.102663,22.3733537 110.562634,21.9321077 109.628284,21.9064037 Z M122.437753,32.7406003 C122.317745,32.4064479 122.257742,31.9866216 122.257742,31.4811089 C121.306248,32.5264063 120.170472,33.0319114 118.850382,32.9976394 C117.641727,32.9805034 116.638816,32.5778129 115.841619,31.7895558 C115.044421,31.0012987 114.671544,30.0459797 114.722976,28.9235702 C114.765836,27.4156001 115.39587,26.2567939 116.613096,25.4471168 C117.830323,24.6374397 119.493269,24.2326072 121.601986,24.2326072 L123.016361,24.2583111 L123.170657,23.474342 L123.222089,22.7931884 C123.187801,22.0134994 122.79778,21.6108089 122.052014,21.5851048 C121.126236,21.5679688 120.556206,22.0777579 120.341905,23.1144873 L116.098778,23.1273392 C116.141638,22.193426 116.44594,21.381619 117.011693,20.6918941 C117.577446,20.0021691 118.346773,19.4709604 119.319697,19.0982519 C120.292621,18.7255433 121.327677,18.5520437 122.424895,18.5777477 C123.479253,18.6034518 124.402874,18.8240748 125.195786,19.2396233 C125.988698,19.6551719 126.582301,20.233504 126.976614,20.974637 C127.370927,21.7157701 127.520935,22.5704164 127.426642,23.5386017 L126.385148,30.080246 L126.320858,30.8770671 C126.28657,31.5111 126.368003,32.0508766 126.565159,32.4964132 L126.552301,32.7406003 L122.437753,32.7406003 Z M120.020456,29.9388745 C120.88623,29.9731465 121.644842,29.5918757 122.296316,28.7950507 L122.720628,26.5588108 L121.627702,26.5459588 C120.950512,26.5630948 120.367624,26.7622981 119.879019,27.1435746 C119.390414,27.5248512 119.103255,28.0453501 119.017535,28.705087 C118.974675,29.0563755 119.041107,29.3455415 119.216834,29.5725938 C119.39256,29.7996461 119.660432,29.9217385 120.020456,29.9388745 Z M133.421392,18.8219349 L133.125659,20.4926888 C134.240021,19.173215 135.581521,18.5306237 137.150201,18.5648958 C138.436003,18.5905998 139.393912,19.0682593 140.023955,19.9978886 C140.653999,20.9275179 140.883297,22.2576817 140.711856,23.9884201 L139.246049,32.7406003 L135.002921,32.7406003 L136.481587,23.9627162 C136.515875,23.6628358 136.524447,23.3886635 136.507303,23.1401912 C136.447298,22.3262301 135.967273,21.9192556 135.067211,21.9192556 C134.321445,21.9021196 133.63998,22.2319831 133.022795,22.908856 L131.28697,32.7406003 L127.0567,32.7406003 L129.473997,18.8347868 L133.421392,18.8219349 Z M147.465225,32.9976394 C146.222283,32.9890714 145.114366,32.6956214 144.141442,32.1172806 C143.168518,31.5389398 142.433479,30.7335588 141.936302,29.7011134 C141.439125,28.668668 141.241971,27.5312815 141.344835,26.2889198 L141.383409,25.9290651 C141.614854,23.6414059 142.409896,21.8314406 143.768561,20.4991148 C145.127226,19.1667889 146.792315,18.5263397 148.763879,18.5777477 C149.95539,18.5948838 150.975445,18.8969017 151.824074,19.4838105 C152.672704,20.0707193 153.294166,20.8803842 153.688479,21.9128296 C154.082792,22.9452751 154.21137,24.1040813 154.074218,25.389283 L153.829917,27.1500006 L145.549389,27.1500006 C145.566533,27.8782816 145.772258,28.4694656 146.166571,28.9235702 C146.560884,29.3776748 147.1352,29.6175755 147.889538,29.6432796 C149.115337,29.6775516 150.216824,29.206318 151.194034,28.2295647 L152.968433,30.5814722 C152.44554,31.3268892 151.714786,31.9116472 150.776151,32.3357638 C149.837515,32.7598804 148.811031,32.9805034 147.696669,32.9976394 L147.465225,32.9976394 Z M148.493862,21.9064037 C147.893821,21.8892676 147.373079,22.0777611 146.93162,22.4718896 C146.490161,22.8660182 146.106569,23.5257452 145.780832,24.4510904 L150.011102,24.4510904 L150.08825,24.0783838 C150.139682,23.7785034 150.148254,23.4957632 150.113965,23.2301549 C149.968241,22.3733537 149.428212,21.9321077 148.493862,21.9064037 Z M163.502043,22.7546326 C163.047726,22.6860885 162.61056,22.6432491 162.190531,22.6261131 C160.921872,22.591841 159.953249,23.028803 159.284631,23.9370123 L157.71596,32.7406003 L153.48569,32.7406003 L155.902987,18.8347868 L159.850382,18.8219349 L159.528933,20.6469122 C160.437567,19.2417583 161.509053,18.5391919 162.743423,18.5391919 C163.094876,18.5391919 163.532042,18.5991671 164.054935,18.7191192 L163.502043,22.7546326 Z M169.985395,28.7564948 C170.096831,28.191006 169.659665,27.7668958 168.673883,27.4841514 L167.760967,27.2528163 C166.269436,26.8586877 165.17652,26.3060592 164.482187,25.5949143 C163.787854,24.8837693 163.462122,24.0398328 163.504982,23.0630795 C163.547842,21.7264696 164.141445,20.6404904 165.28581,19.8051093 C166.430174,18.9697281 167.825249,18.5606117 169.471076,18.5777477 C171.108332,18.5948838 172.434831,19.0104261 173.450616,19.8243872 C174.4664,20.6383483 174.982856,21.7350374 175,23.1144873 L170.782588,23.1016353 C170.816876,22.0049298 170.332565,21.4565853 169.329639,21.4565853 C168.901038,21.4565853 168.502445,21.5829616 168.133848,21.8357179 C167.765251,22.0884743 167.546668,22.4247637 167.478092,22.8445963 C167.332368,23.5386052 167.945258,24.0141227 169.316781,24.2711631 C170.508291,24.5539075 171.429769,24.881629 172.081243,25.2543375 C172.732716,25.627046 173.229886,26.0875697 173.572766,26.6359225 C173.915647,27.1842752 174.074227,27.8440023 174.048511,28.6151233 C174.022795,29.4547885 173.748494,30.2044782 173.225601,30.8642151 C172.702708,31.523952 171.946239,32.0508769 170.956171,32.4450054 C169.966103,32.8391339 168.892474,33.0233434 167.735251,32.9976394 C166.732325,32.9890714 165.800132,32.7791582 164.938645,32.3678937 C164.077157,31.9566291 163.404264,31.3975747 162.919945,30.6907138 C162.435626,29.9838528 162.184898,29.1720459 162.167754,28.2552686 L166.10229,28.2809725 C166.119434,29.5147662 166.73661,30.1230859 167.953837,30.1059499 C168.47673,30.1059499 168.922468,29.9881415 169.291065,29.7525212 C169.659662,29.5169009 169.891103,29.1848954 169.985395,28.7564948 Z" id="MICleaners" fill="#FFFFFF"></path>
            </g>
        </g>
    </g>
</svg>